<?xml version="1.0" encoding="UTF-8" standalone="no"?>
<!-- Created with Inkscape (http://www.inkscape.org/) -->

<svg
   width="240mm"
   height="120mm"
   viewBox="0 0 240 120"
   version="1.1"
   id="svg8"
   inkscape:version="1.3 (0e150ed6c4, 2023-07-21)"
   sodipodi:docname="prop_dependent_cuts_k_connected_graph.svg"
   xmlns:inkscape="http://www.inkscape.org/namespaces/inkscape"
   xmlns:sodipodi="http://sodipodi.sourceforge.net/DTD/sodipodi-0.dtd"
   xmlns="http://www.w3.org/2000/svg"
   xmlns:svg="http://www.w3.org/2000/svg"
   xmlns:rdf="http://www.w3.org/1999/02/22-rdf-syntax-ns#"
   xmlns:cc="http://creativecommons.org/ns#"
   xmlns:dc="http://purl.org/dc/elements/1.1/"
   xmlns:ns1="http://www.iki.fi/pav/software/textext/">
  <sodipodi:namedview
     id="base"
     pagecolor="#ffffff"
     bordercolor="#666666"
     borderopacity="1.0"
     inkscape:pageopacity="0.0"
     inkscape:pageshadow="2"
     inkscape:zoom="2.6291582"
     inkscape:cx="431.31677"
     inkscape:cy="176.29217"
     inkscape:document-units="mm"
     inkscape:current-layer="g7163"
     showgrid="false"
     showborder="true"
     width="200mm"
     showguides="true"
     inkscape:guide-bbox="true"
     inkscape:window-width="2560"
     inkscape:window-height="1417"
     inkscape:window-x="0"
     inkscape:window-y="0"
     inkscape:window-maximized="1"
     inkscape:showpageshadow="2"
     inkscape:pagecheckerboard="0"
     inkscape:deskcolor="#d1d1d1">
    <inkscape:grid
       type="xygrid"
       id="grid815"
       units="mm"
       spacingx="10"
       spacingy="10"
       empspacing="4"
       dotted="false"
       originx="0"
       originy="0"
       visible="false" />
  </sodipodi:namedview>
  <defs
     id="defs2" />
  <metadata
     id="metadata5">
    <rdf:RDF>
      <cc:Work
         rdf:about="">
        <dc:format>image/svg+xml</dc:format>
        <dc:type
           rdf:resource="http://purl.org/dc/dcmitype/StillImage" />
        <dc:title />
      </cc:Work>
    </rdf:RDF>
  </metadata>
  <g
     inkscape:label="Layer 1"
     inkscape:groupmode="layer"
     id="layer1"
     transform="translate(0, -177)">
    <rect
       style="fill:#ff2a2a;fill-opacity:0;fill-rule:evenodd;stroke:#000000;stroke-width:0.499999;paint-order:stroke fill markers"
       id="rect1"
       width="11.831371"
       height="90.166252"
       x="-95.042206"
       y="199.45895"
       transform="rotate(-45)" />
    <rect
       style="fill:#ff2a2a;fill-opacity:0;fill-rule:evenodd;stroke:#000000;stroke-width:0.499999;paint-order:stroke fill markers"
       id="rect2"
       width="11.831371"
       height="90.166252"
       x="238.6264"
       y="44.043392"
       transform="rotate(45)" />
    <path
       style="fill:#ff0000;fill-opacity:0;fill-rule:evenodd;stroke:#ff0000;stroke-width:0.499999;paint-order:stroke fill markers"
       d="m 114.68746,203.59343 34.14748,35.85056"
       id="path2" />
    <path
       style="fill:#ff2a2a;fill-opacity:0;fill-rule:evenodd;stroke:#ff0000;stroke-width:0.499999;paint-order:stroke fill markers"
       d="m 82.02814,242.74788 14.974657,-42.4023"
       id="path3" />
    <g
       transform="matrix(0.458611,0,0,0.458611,108.31063,233.94636)"
       ns1:version="1.9.0"
       ns1:texconverter="pdflatex"
       ns1:pdfconverter="inkscape"
       ns1:text="$$P$$"
       ns1:preamble="/home/buyolitsez/.config/inkscape/extensions/textext/default_packages.tex"
       ns1:scale="1.3"
       ns1:alignment="middle center"
       ns1:stroke-to-path="0"
       ns1:inkscapeversion="0.92.4"
       id="g4149"
       ns1:jacobian_sqrt="0.458611">
      <defs
         id="id-f12513bd-8175-40fe-9a43-4eb81cf68fb8">
        <g
           id="id-f200d2a1-2073-4a83-bb18-30597e8add85">
          <g
             id="id-25b1b9eb-5f55-42e5-a0f9-b9d76611f2aa" />
          <g
             id="id-dac688a4-1f89-4204-b0bb-b96284fc26bc">
            <path
               d="M 3.015625,-3.15625 H 4.71875 c 1.40625,0 2.796875,-1.03125 2.796875,-2.140625 0,-0.78125 -0.65625,-1.515625 -1.96875,-1.515625 h -3.21875 c -0.1875,0 -0.296875,0 -0.296875,0.1875 0,0.125 0.078125,0.125 0.28125,0.125 0.125,0 0.3125,0.015625 0.421875,0.015625 0.171875,0.03125 0.21875,0.046875 0.21875,0.171875 0,0.03125 0,0.0625 -0.03125,0.1875 l -1.34375,5.34375 c -0.09375,0.390625 -0.109375,0.46875 -0.90625,0.46875 -0.15625,0 -0.265625,0 -0.265625,0.1875 C 0.40625,0 0.515625,0 0.546875,0 0.828125,0 1.53125,-0.03125 1.8125,-0.03125 c 0.21875,0 0.4375,0.015625 0.640625,0.015625 0.21875,0 0.4375,0.015625 0.640625,0.015625 0.078125,0 0.203125,0 0.203125,-0.203125 0,-0.109375 -0.09375,-0.109375 -0.28125,-0.109375 -0.359375,0 -0.640625,0 -0.640625,-0.171875 0,-0.0625 0.015625,-0.109375 0.03125,-0.171875 z M 3.734375,-6.125 C 3.828125,-6.46875 3.84375,-6.5 4.28125,-6.5 h 0.953125 c 0.828125,0 1.359375,0.265625 1.359375,0.953125 0,0.390625 -0.203125,1.25 -0.59375,1.609375 -0.5,0.453125 -1.09375,0.53125 -1.53125,0.53125 H 3.0625 Z m 0,0"
               id="id-4633866f-18da-45f6-8566-7b157f691e64" />
          </g>
        </g>
      </defs>
      <g
         fill="#000000"
         fill-opacity="1"
         id="id-cda434c9-4986-4007-a397-18cd093518d0"
         transform="translate(-302.14,-139.907)">
        <g
           transform="translate(301.734,146.72)"
           id="g7680">
          <path
             d="M 3.015625,-3.15625 H 4.71875 c 1.40625,0 2.796875,-1.03125 2.796875,-2.140625 0,-0.78125 -0.65625,-1.515625 -1.96875,-1.515625 h -3.21875 c -0.1875,0 -0.296875,0 -0.296875,0.1875 0,0.125 0.078125,0.125 0.28125,0.125 0.125,0 0.3125,0.015625 0.421875,0.015625 0.171875,0.03125 0.21875,0.046875 0.21875,0.171875 0,0.03125 0,0.0625 -0.03125,0.1875 l -1.34375,5.34375 c -0.09375,0.390625 -0.109375,0.46875 -0.90625,0.46875 -0.15625,0 -0.265625,0 -0.265625,0.1875 C 0.40625,0 0.515625,0 0.546875,0 0.828125,0 1.53125,-0.03125 1.8125,-0.03125 c 0.21875,0 0.4375,0.015625 0.640625,0.015625 0.21875,0 0.4375,0.015625 0.640625,0.015625 0.078125,0 0.203125,0 0.203125,-0.203125 0,-0.109375 -0.09375,-0.109375 -0.28125,-0.109375 -0.359375,0 -0.640625,0 -0.640625,-0.171875 0,-0.0625 0.015625,-0.109375 0.03125,-0.171875 z M 3.734375,-6.125 C 3.828125,-6.46875 3.84375,-6.5 4.28125,-6.5 h 0.953125 c 0.828125,0 1.359375,0.265625 1.359375,0.953125 0,0.390625 -0.203125,1.25 -0.59375,1.609375 -0.5,0.453125 -1.09375,0.53125 -1.53125,0.53125 H 3.0625 Z m 0,0"
             id="id-0418b81d-5c09-4529-8ba5-915702557800" />
        </g>
      </g>
    </g>
    <g
       transform="matrix(0.458611,0,0,0.458611,96.100004,223.18191)"
       ns1:version="1.9.0"
       ns1:texconverter="pdflatex"
       ns1:pdfconverter="inkscape"
       ns1:text="$$T_1$$"
       ns1:preamble="/home/buyolitsez/.config/inkscape/extensions/textext/default_packages.tex"
       ns1:scale="1.3"
       ns1:alignment="middle center"
       ns1:stroke-to-path="0"
       ns1:inkscapeversion="0.92.4"
       id="g3573"
       ns1:jacobian_sqrt="0.458611">
      <defs
         id="id-d4b84973-2329-49b3-811b-9eb08d8c486c">
        <g
           id="id-813efb3b-3b3c-41b8-83b0-407801360782">
          <g
             id="id-4ec0e04c-4c44-4bb8-97a5-120e96c9daa2" />
          <g
             id="id-385fa2a9-8d39-4237-bf33-88d4028ba853">
            <path
               d="m 4.25,-6.046875 c 0.078125,-0.28125 0.109375,-0.34375 0.234375,-0.375 0.09375,-0.015625 0.421875,-0.015625 0.625,-0.015625 1.015625,0 1.453125,0.03125 1.453125,0.8125 0,0.15625 -0.03125,0.546875 -0.078125,0.796875 0,0.046875 -0.03125,0.15625 -0.03125,0.1875 0,0.0625 0.03125,0.140625 0.125,0.140625 0.109375,0 0.125,-0.078125 0.15625,-0.234375 L 7,-6.46875 C 7.015625,-6.515625 7.015625,-6.609375 7.015625,-6.640625 7.015625,-6.75 6.921875,-6.75 6.75,-6.75 H 1.21875 c -0.234375,0 -0.25,0.015625 -0.328125,0.203125 l -0.59375,1.75 c 0,0.015625 -0.0625,0.15625 -0.0625,0.1875 0,0.046875 0.0625,0.109375 0.125,0.109375 0.09375,0 0.109375,-0.0625 0.171875,-0.21875 C 1.0625,-6.265625 1.328125,-6.4375 2.796875,-6.4375 H 3.1875 c 0.28125,0 0.28125,0.03125 0.28125,0.125 0,0.046875 -0.03125,0.171875 -0.046875,0.203125 L 2.09375,-0.78125 C 2,-0.421875 1.96875,-0.3125 0.90625,-0.3125 c -0.359375,0 -0.421875,0 -0.421875,0.1875 C 0.484375,0 0.59375,0 0.65625,0 c 0.265625,0 0.546875,-0.015625 0.8125,-0.015625 0.28125,0 0.578125,-0.015625 0.859375,-0.015625 0.28125,0 0.546875,0.015625 0.828125,0.015625 C 3.4375,-0.015625 3.734375,0 4.015625,0 c 0.09375,0 0.21875,0 0.21875,-0.203125 0,-0.109375 -0.078125,-0.109375 -0.34375,-0.109375 -0.234375,0 -0.375,0 -0.625,-0.015625 -0.296875,-0.03125 -0.375,-0.0625 -0.375,-0.21875 0,-0.015625 0,-0.0625 0.046875,-0.203125 z m 0,0"
               id="id-7f798535-ad2a-4ee9-98ce-94e2df781a0e" />
          </g>
          <g
             id="id-cf354924-ee19-4ac4-84ee-9093af7a5ea0" />
          <g
             id="id-03276173-4b07-405e-85b2-aac3eb1cf65e">
            <path
               d="m 2.328125,-4.4375 c 0,-0.1875 0,-0.1875 -0.203125,-0.1875 -0.453125,0.4375 -1.078125,0.4375 -1.359375,0.4375 v 0.25 c 0.15625,0 0.625,0 1,-0.1875 v 3.546875 c 0,0.234375 0,0.328125 -0.6875,0.328125 H 0.8125 V 0 c 0.125,0 0.984375,-0.03125 1.234375,-0.03125 0.21875,0 1.09375,0.03125 1.25,0.03125 V -0.25 H 3.03125 c -0.703125,0 -0.703125,-0.09375 -0.703125,-0.328125 z m 0,0"
               id="id-cdcd2eee-a67b-44c2-baa6-5e1bc5335f29" />
          </g>
        </g>
      </defs>
      <g
         fill="#000000"
         fill-opacity="1"
         id="id-e1548f19-fca2-49a1-8536-a2b3cb8e9947"
         transform="translate(-300.712,-139.97)">
        <g
           transform="translate(300.478,146.72)"
           id="g9294">
          <path
             d="m 4.25,-6.046875 c 0.078125,-0.28125 0.109375,-0.34375 0.234375,-0.375 0.09375,-0.015625 0.421875,-0.015625 0.625,-0.015625 1.015625,0 1.453125,0.03125 1.453125,0.8125 0,0.15625 -0.03125,0.546875 -0.078125,0.796875 0,0.046875 -0.03125,0.15625 -0.03125,0.1875 0,0.0625 0.03125,0.140625 0.125,0.140625 0.109375,0 0.125,-0.078125 0.15625,-0.234375 L 7,-6.46875 C 7.015625,-6.515625 7.015625,-6.609375 7.015625,-6.640625 7.015625,-6.75 6.921875,-6.75 6.75,-6.75 H 1.21875 c -0.234375,0 -0.25,0.015625 -0.328125,0.203125 l -0.59375,1.75 c 0,0.015625 -0.0625,0.15625 -0.0625,0.1875 0,0.046875 0.0625,0.109375 0.125,0.109375 0.09375,0 0.109375,-0.0625 0.171875,-0.21875 C 1.0625,-6.265625 1.328125,-6.4375 2.796875,-6.4375 H 3.1875 c 0.28125,0 0.28125,0.03125 0.28125,0.125 0,0.046875 -0.03125,0.171875 -0.046875,0.203125 L 2.09375,-0.78125 C 2,-0.421875 1.96875,-0.3125 0.90625,-0.3125 c -0.359375,0 -0.421875,0 -0.421875,0.1875 C 0.484375,0 0.59375,0 0.65625,0 c 0.265625,0 0.546875,-0.015625 0.8125,-0.015625 0.28125,0 0.578125,-0.015625 0.859375,-0.015625 0.28125,0 0.546875,0.015625 0.828125,0.015625 C 3.4375,-0.015625 3.734375,0 4.015625,0 c 0.09375,0 0.21875,0 0.21875,-0.203125 0,-0.109375 -0.078125,-0.109375 -0.34375,-0.109375 -0.234375,0 -0.375,0 -0.625,-0.015625 -0.296875,-0.03125 -0.375,-0.0625 -0.375,-0.21875 0,-0.015625 0,-0.0625 0.046875,-0.203125 z m 0,0"
             id="id-1da186ed-e100-4375-8bcf-4a8dd2650d0d" />
        </g>
      </g>
      <g
         fill="#000000"
         fill-opacity="1"
         id="id-704c4409-10f2-4dbb-8258-0ee7489ec8ae"
         transform="translate(-300.712,-139.97)">
        <g
           transform="translate(306.3,148.214)"
           id="g2675">
          <path
             d="m 2.328125,-4.4375 c 0,-0.1875 0,-0.1875 -0.203125,-0.1875 -0.453125,0.4375 -1.078125,0.4375 -1.359375,0.4375 v 0.25 c 0.15625,0 0.625,0 1,-0.1875 v 3.546875 c 0,0.234375 0,0.328125 -0.6875,0.328125 H 0.8125 V 0 c 0.125,0 0.984375,-0.03125 1.234375,-0.03125 0.21875,0 1.09375,0.03125 1.25,0.03125 V -0.25 H 3.03125 c -0.703125,0 -0.703125,-0.09375 -0.703125,-0.328125 z m 0,0"
             id="id-272bec08-981d-4d25-a8d2-f4273ebebaf8" />
        </g>
      </g>
    </g>
    <g
       transform="matrix(0.458611,0,0,0.458611,126.4801,252.91382)"
       ns1:version="1.9.0"
       ns1:texconverter="pdflatex"
       ns1:pdfconverter="inkscape"
       ns1:text="$$T_2$$"
       ns1:preamble="/home/buyolitsez/.config/inkscape/extensions/textext/default_packages.tex"
       ns1:scale="1.3"
       ns1:alignment="middle center"
       ns1:stroke-to-path="0"
       ns1:inkscapeversion="0.92.4"
       id="g8838"
       ns1:jacobian_sqrt="0.458611">
      <defs
         id="id-f8f4f8dc-9f26-4569-b47a-7191f6658a37">
        <g
           id="id-a343bf41-e57d-48e5-ab6a-4d3fea08a1f5">
          <g
             id="id-f3d87da6-c353-4681-a9d3-e89dcbe715fc" />
          <g
             id="id-00e3fb29-aa3b-400e-859f-0f41c618d678">
            <path
               d="m 4.25,-6.046875 c 0.078125,-0.28125 0.109375,-0.34375 0.234375,-0.375 0.09375,-0.015625 0.421875,-0.015625 0.625,-0.015625 1.015625,0 1.453125,0.03125 1.453125,0.8125 0,0.15625 -0.03125,0.546875 -0.078125,0.796875 0,0.046875 -0.03125,0.15625 -0.03125,0.1875 0,0.0625 0.03125,0.140625 0.125,0.140625 0.109375,0 0.125,-0.078125 0.15625,-0.234375 L 7,-6.46875 C 7.015625,-6.515625 7.015625,-6.609375 7.015625,-6.640625 7.015625,-6.75 6.921875,-6.75 6.75,-6.75 H 1.21875 c -0.234375,0 -0.25,0.015625 -0.328125,0.203125 l -0.59375,1.75 c 0,0.015625 -0.0625,0.15625 -0.0625,0.1875 0,0.046875 0.0625,0.109375 0.125,0.109375 0.09375,0 0.109375,-0.0625 0.171875,-0.21875 C 1.0625,-6.265625 1.328125,-6.4375 2.796875,-6.4375 H 3.1875 c 0.28125,0 0.28125,0.03125 0.28125,0.125 0,0.046875 -0.03125,0.171875 -0.046875,0.203125 L 2.09375,-0.78125 C 2,-0.421875 1.96875,-0.3125 0.90625,-0.3125 c -0.359375,0 -0.421875,0 -0.421875,0.1875 C 0.484375,0 0.59375,0 0.65625,0 c 0.265625,0 0.546875,-0.015625 0.8125,-0.015625 0.28125,0 0.578125,-0.015625 0.859375,-0.015625 0.28125,0 0.546875,0.015625 0.828125,0.015625 C 3.4375,-0.015625 3.734375,0 4.015625,0 c 0.09375,0 0.21875,0 0.21875,-0.203125 0,-0.109375 -0.078125,-0.109375 -0.34375,-0.109375 -0.234375,0 -0.375,0 -0.625,-0.015625 -0.296875,-0.03125 -0.375,-0.0625 -0.375,-0.21875 0,-0.015625 0,-0.0625 0.046875,-0.203125 z m 0,0"
               id="id-56fd64a3-7376-4dfd-a205-5bc94520d837" />
          </g>
          <g
             id="id-1a0d6249-5232-4450-8202-e18dcbec1a96" />
          <g
             id="id-f826ca08-299b-4361-85ab-365059c83af6">
            <path
               d="M 3.515625,-1.265625 H 3.28125 c -0.015625,0.15625 -0.09375,0.5625 -0.1875,0.625 C 3.046875,-0.59375 2.515625,-0.59375 2.40625,-0.59375 H 1.125 c 0.734375,-0.640625 0.984375,-0.84375 1.390625,-1.171875 0.515625,-0.40625 1,-0.84375 1,-1.5 0,-0.84375 -0.734375,-1.359375 -1.625,-1.359375 -0.859375,0 -1.453125,0.609375 -1.453125,1.25 0,0.34375 0.296875,0.390625 0.375,0.390625 0.15625,0 0.359375,-0.125 0.359375,-0.375 0,-0.125 -0.046875,-0.375 -0.40625,-0.375 C 0.984375,-4.21875 1.453125,-4.375 1.78125,-4.375 c 0.703125,0 1.0625,0.546875 1.0625,1.109375 0,0.609375 -0.4375,1.078125 -0.65625,1.328125 L 0.515625,-0.265625 C 0.4375,-0.203125 0.4375,-0.1875 0.4375,0 h 2.875 z m 0,0"
               id="id-974bd1f7-76c5-4b4c-8968-062419ceede2" />
          </g>
        </g>
      </defs>
      <g
         fill="#000000"
         fill-opacity="1"
         id="id-a42ae6a2-ffbf-4e92-a384-a05e36201630"
         transform="translate(-300.712,-139.97)">
        <g
           transform="translate(300.478,146.72)"
           id="g3091">
          <path
             d="m 4.25,-6.046875 c 0.078125,-0.28125 0.109375,-0.34375 0.234375,-0.375 0.09375,-0.015625 0.421875,-0.015625 0.625,-0.015625 1.015625,0 1.453125,0.03125 1.453125,0.8125 0,0.15625 -0.03125,0.546875 -0.078125,0.796875 0,0.046875 -0.03125,0.15625 -0.03125,0.1875 0,0.0625 0.03125,0.140625 0.125,0.140625 0.109375,0 0.125,-0.078125 0.15625,-0.234375 L 7,-6.46875 C 7.015625,-6.515625 7.015625,-6.609375 7.015625,-6.640625 7.015625,-6.75 6.921875,-6.75 6.75,-6.75 H 1.21875 c -0.234375,0 -0.25,0.015625 -0.328125,0.203125 l -0.59375,1.75 c 0,0.015625 -0.0625,0.15625 -0.0625,0.1875 0,0.046875 0.0625,0.109375 0.125,0.109375 0.09375,0 0.109375,-0.0625 0.171875,-0.21875 C 1.0625,-6.265625 1.328125,-6.4375 2.796875,-6.4375 H 3.1875 c 0.28125,0 0.28125,0.03125 0.28125,0.125 0,0.046875 -0.03125,0.171875 -0.046875,0.203125 L 2.09375,-0.78125 C 2,-0.421875 1.96875,-0.3125 0.90625,-0.3125 c -0.359375,0 -0.421875,0 -0.421875,0.1875 C 0.484375,0 0.59375,0 0.65625,0 c 0.265625,0 0.546875,-0.015625 0.8125,-0.015625 0.28125,0 0.578125,-0.015625 0.859375,-0.015625 0.28125,0 0.546875,0.015625 0.828125,0.015625 C 3.4375,-0.015625 3.734375,0 4.015625,0 c 0.09375,0 0.21875,0 0.21875,-0.203125 0,-0.109375 -0.078125,-0.109375 -0.34375,-0.109375 -0.234375,0 -0.375,0 -0.625,-0.015625 -0.296875,-0.03125 -0.375,-0.0625 -0.375,-0.21875 0,-0.015625 0,-0.0625 0.046875,-0.203125 z m 0,0"
             id="id-34c3484e-13a0-493b-9cd0-e645cd817b53" />
        </g>
      </g>
      <g
         fill="#000000"
         fill-opacity="1"
         id="id-5f2555a7-fc20-4949-b682-6f06b96fc685"
         transform="translate(-300.712,-139.97)">
        <g
           transform="translate(306.3,148.214)"
           id="g1104">
          <path
             d="M 3.515625,-1.265625 H 3.28125 c -0.015625,0.15625 -0.09375,0.5625 -0.1875,0.625 C 3.046875,-0.59375 2.515625,-0.59375 2.40625,-0.59375 H 1.125 c 0.734375,-0.640625 0.984375,-0.84375 1.390625,-1.171875 0.515625,-0.40625 1,-0.84375 1,-1.5 0,-0.84375 -0.734375,-1.359375 -1.625,-1.359375 -0.859375,0 -1.453125,0.609375 -1.453125,1.25 0,0.34375 0.296875,0.390625 0.375,0.390625 0.15625,0 0.359375,-0.125 0.359375,-0.375 0,-0.125 -0.046875,-0.375 -0.40625,-0.375 C 0.984375,-4.21875 1.453125,-4.375 1.78125,-4.375 c 0.703125,0 1.0625,0.546875 1.0625,1.109375 0,0.609375 -0.4375,1.078125 -0.65625,1.328125 L 0.515625,-0.265625 C 0.4375,-0.203125 0.4375,-0.1875 0.4375,0 h 2.875 z m 0,0"
             id="id-a814cf45-01c4-467c-a58c-973611e65d81" />
        </g>
      </g>
    </g>
    <g
       transform="matrix(0.458611,0,0,0.458611,91.249318,249.4587)"
       ns1:version="1.9.0"
       ns1:texconverter="pdflatex"
       ns1:pdfconverter="inkscape"
       ns1:text="$$S_1$$"
       ns1:preamble="/home/buyolitsez/.config/inkscape/extensions/textext/default_packages.tex"
       ns1:scale="1.3"
       ns1:alignment="middle center"
       ns1:stroke-to-path="0"
       ns1:inkscapeversion="0.92.4"
       id="g6907"
       ns1:jacobian_sqrt="0.458611">
      <defs
         id="id-ad4ba714-96db-410f-93f1-b5b1b3dc9909">
        <g
           id="id-95fc444c-8928-4b93-bbfe-4024917597c3">
          <g
             id="id-e6126e10-d0d8-421d-af2e-6cbc562950d6" />
          <g
             id="id-df486563-f5fb-4bad-8117-fd0fce614034">
            <path
               d="m 6.4375,-6.921875 c 0,-0.03125 -0.03125,-0.109375 -0.125,-0.109375 -0.046875,0 -0.046875,0.015625 -0.171875,0.15625 L 5.65625,-6.3125 c -0.25,-0.46875 -0.765625,-0.71875 -1.421875,-0.71875 -1.265625,0 -2.453125,1.15625 -2.453125,2.359375 0,0.796875 0.515625,1.265625 1.03125,1.40625 l 1.0625,0.28125 c 0.375,0.09375 0.921875,0.25 0.921875,1.0625 0,0.890625 -0.8125,1.828125 -1.796875,1.828125 -0.640625,0 -1.75,-0.21875 -1.75,-1.453125 0,-0.234375 0.0625,-0.484375 0.0625,-0.53125 0.015625,-0.046875 0.015625,-0.0625 0.015625,-0.078125 0,-0.09375 -0.0625,-0.109375 -0.109375,-0.109375 -0.046875,0 -0.078125,0.015625 -0.109375,0.046875 -0.03125,0.03125 -0.59375,2.3125 -0.59375,2.34375 0,0.046875 0.046875,0.09375 0.109375,0.09375 0.046875,0 0.0625,-0.015625 0.1875,-0.15625 L 1.296875,-0.5 c 0.421875,0.578125 1.109375,0.71875 1.6875,0.71875 1.359375,0 2.53125,-1.328125 2.53125,-2.5625 0,-0.6875 -0.34375,-1.03125 -0.484375,-1.171875 C 4.796875,-3.734375 4.640625,-3.78125 3.765625,-4 3.53125,-4.0625 3.1875,-4.171875 3.09375,-4.1875 2.828125,-4.28125 2.484375,-4.5625 2.484375,-5.09375 c 0,-0.8125 0.796875,-1.65625 1.75,-1.65625 0.8125,0 1.421875,0.4375 1.421875,1.546875 0,0.3125 -0.03125,0.5 -0.03125,0.5625 0,0 0,0.09375 0.109375,0.09375 0.109375,0 0.125,-0.03125 0.15625,-0.203125 z m 0,0"
               id="id-efc8352b-0dd2-4893-84f9-d5309c06fd97" />
          </g>
          <g
             id="id-b54d86b3-e1aa-48e5-b013-1e1eeeb4d3a8" />
          <g
             id="id-1c29d1c5-47c6-4267-88d9-6c462045031d">
            <path
               d="m 2.328125,-4.4375 c 0,-0.1875 0,-0.1875 -0.203125,-0.1875 -0.453125,0.4375 -1.078125,0.4375 -1.359375,0.4375 v 0.25 c 0.15625,0 0.625,0 1,-0.1875 v 3.546875 c 0,0.234375 0,0.328125 -0.6875,0.328125 H 0.8125 V 0 c 0.125,0 0.984375,-0.03125 1.234375,-0.03125 0.21875,0 1.09375,0.03125 1.25,0.03125 V -0.25 H 3.03125 c -0.703125,0 -0.703125,-0.09375 -0.703125,-0.328125 z m 0,0"
               id="id-91afc930-eac7-4304-b1e3-06457c47f422" />
          </g>
        </g>
      </defs>
      <g
         fill="#000000"
         fill-opacity="1"
         id="id-772279fc-9aba-44b7-ad7c-1978b3311091"
         transform="translate(-300.851,-139.689)">
        <g
           transform="translate(300.335,146.72)"
           id="g2669">
          <path
             d="m 6.4375,-6.921875 c 0,-0.03125 -0.03125,-0.109375 -0.125,-0.109375 -0.046875,0 -0.046875,0.015625 -0.171875,0.15625 L 5.65625,-6.3125 c -0.25,-0.46875 -0.765625,-0.71875 -1.421875,-0.71875 -1.265625,0 -2.453125,1.15625 -2.453125,2.359375 0,0.796875 0.515625,1.265625 1.03125,1.40625 l 1.0625,0.28125 c 0.375,0.09375 0.921875,0.25 0.921875,1.0625 0,0.890625 -0.8125,1.828125 -1.796875,1.828125 -0.640625,0 -1.75,-0.21875 -1.75,-1.453125 0,-0.234375 0.0625,-0.484375 0.0625,-0.53125 0.015625,-0.046875 0.015625,-0.0625 0.015625,-0.078125 0,-0.09375 -0.0625,-0.109375 -0.109375,-0.109375 -0.046875,0 -0.078125,0.015625 -0.109375,0.046875 -0.03125,0.03125 -0.59375,2.3125 -0.59375,2.34375 0,0.046875 0.046875,0.09375 0.109375,0.09375 0.046875,0 0.0625,-0.015625 0.1875,-0.15625 L 1.296875,-0.5 c 0.421875,0.578125 1.109375,0.71875 1.6875,0.71875 1.359375,0 2.53125,-1.328125 2.53125,-2.5625 0,-0.6875 -0.34375,-1.03125 -0.484375,-1.171875 C 4.796875,-3.734375 4.640625,-3.78125 3.765625,-4 3.53125,-4.0625 3.1875,-4.171875 3.09375,-4.1875 2.828125,-4.28125 2.484375,-4.5625 2.484375,-5.09375 c 0,-0.8125 0.796875,-1.65625 1.75,-1.65625 0.8125,0 1.421875,0.4375 1.421875,1.546875 0,0.3125 -0.03125,0.5 -0.03125,0.5625 0,0 0,0.09375 0.109375,0.09375 0.109375,0 0.125,-0.03125 0.15625,-0.203125 z m 0,0"
             id="id-389c555d-f833-4e43-abaf-8520c01b58ad" />
        </g>
      </g>
      <g
         fill="#000000"
         fill-opacity="1"
         id="id-986217b4-e77e-4969-b123-e038b2c36a59"
         transform="translate(-300.851,-139.689)">
        <g
           transform="translate(306.444,148.214)"
           id="g6840">
          <path
             d="m 2.328125,-4.4375 c 0,-0.1875 0,-0.1875 -0.203125,-0.1875 -0.453125,0.4375 -1.078125,0.4375 -1.359375,0.4375 v 0.25 c 0.15625,0 0.625,0 1,-0.1875 v 3.546875 c 0,0.234375 0,0.328125 -0.6875,0.328125 H 0.8125 V 0 c 0.125,0 0.984375,-0.03125 1.234375,-0.03125 0.21875,0 1.09375,0.03125 1.25,0.03125 V -0.25 H 3.03125 c -0.703125,0 -0.703125,-0.09375 -0.703125,-0.328125 z m 0,0"
             id="id-827c36a0-4a6d-4f98-ba05-aad26408a770" />
        </g>
      </g>
    </g>
    <g
       transform="matrix(0.458611,0,0,0.458611,120.72905,221.70782)"
       ns1:version="1.9.0"
       ns1:texconverter="pdflatex"
       ns1:pdfconverter="inkscape"
       ns1:text="$$S_2$$"
       ns1:preamble="/home/buyolitsez/.config/inkscape/extensions/textext/default_packages.tex"
       ns1:scale="1.3"
       ns1:alignment="middle center"
       ns1:stroke-to-path="0"
       ns1:inkscapeversion="0.92.4"
       id="g1456"
       ns1:jacobian_sqrt="0.458611">
      <defs
         id="id-8fba3572-b858-44ef-8b2e-0e658c9bde6f">
        <g
           id="id-f1d6542f-4420-438f-b58f-f77cd18202da">
          <g
             id="id-2d000c80-cc94-48d7-a259-16c53f9ace8f" />
          <g
             id="id-f4773f75-37fa-4be6-a667-78fa63c10853">
            <path
               d="m 6.4375,-6.921875 c 0,-0.03125 -0.03125,-0.109375 -0.125,-0.109375 -0.046875,0 -0.046875,0.015625 -0.171875,0.15625 L 5.65625,-6.3125 c -0.25,-0.46875 -0.765625,-0.71875 -1.421875,-0.71875 -1.265625,0 -2.453125,1.15625 -2.453125,2.359375 0,0.796875 0.515625,1.265625 1.03125,1.40625 l 1.0625,0.28125 c 0.375,0.09375 0.921875,0.25 0.921875,1.0625 0,0.890625 -0.8125,1.828125 -1.796875,1.828125 -0.640625,0 -1.75,-0.21875 -1.75,-1.453125 0,-0.234375 0.0625,-0.484375 0.0625,-0.53125 0.015625,-0.046875 0.015625,-0.0625 0.015625,-0.078125 0,-0.09375 -0.0625,-0.109375 -0.109375,-0.109375 -0.046875,0 -0.078125,0.015625 -0.109375,0.046875 -0.03125,0.03125 -0.59375,2.3125 -0.59375,2.34375 0,0.046875 0.046875,0.09375 0.109375,0.09375 0.046875,0 0.0625,-0.015625 0.1875,-0.15625 L 1.296875,-0.5 c 0.421875,0.578125 1.109375,0.71875 1.6875,0.71875 1.359375,0 2.53125,-1.328125 2.53125,-2.5625 0,-0.6875 -0.34375,-1.03125 -0.484375,-1.171875 C 4.796875,-3.734375 4.640625,-3.78125 3.765625,-4 3.53125,-4.0625 3.1875,-4.171875 3.09375,-4.1875 2.828125,-4.28125 2.484375,-4.5625 2.484375,-5.09375 c 0,-0.8125 0.796875,-1.65625 1.75,-1.65625 0.8125,0 1.421875,0.4375 1.421875,1.546875 0,0.3125 -0.03125,0.5 -0.03125,0.5625 0,0 0,0.09375 0.109375,0.09375 0.109375,0 0.125,-0.03125 0.15625,-0.203125 z m 0,0"
               id="id-64cac2b6-8f23-4b21-b666-b5cc1691ea81" />
          </g>
          <g
             id="id-b9b835cd-4842-47c2-9d69-ede66dacce57" />
          <g
             id="id-e13092b0-f0a4-4a26-8e00-442745dc0cd5">
            <path
               d="M 3.515625,-1.265625 H 3.28125 c -0.015625,0.15625 -0.09375,0.5625 -0.1875,0.625 C 3.046875,-0.59375 2.515625,-0.59375 2.40625,-0.59375 H 1.125 c 0.734375,-0.640625 0.984375,-0.84375 1.390625,-1.171875 0.515625,-0.40625 1,-0.84375 1,-1.5 0,-0.84375 -0.734375,-1.359375 -1.625,-1.359375 -0.859375,0 -1.453125,0.609375 -1.453125,1.25 0,0.34375 0.296875,0.390625 0.375,0.390625 0.15625,0 0.359375,-0.125 0.359375,-0.375 0,-0.125 -0.046875,-0.375 -0.40625,-0.375 C 0.984375,-4.21875 1.453125,-4.375 1.78125,-4.375 c 0.703125,0 1.0625,0.546875 1.0625,1.109375 0,0.609375 -0.4375,1.078125 -0.65625,1.328125 L 0.515625,-0.265625 C 0.4375,-0.203125 0.4375,-0.1875 0.4375,0 h 2.875 z m 0,0"
               id="id-1fc5133c-7b30-44a3-a33d-b15f393fa973" />
          </g>
        </g>
      </defs>
      <g
         fill="#000000"
         fill-opacity="1"
         id="id-bf88900e-e687-4873-b740-3dc3fa6f9a0a"
         transform="translate(-300.851,-139.689)">
        <g
           transform="translate(300.335,146.72)"
           id="g2680">
          <path
             d="m 6.4375,-6.921875 c 0,-0.03125 -0.03125,-0.109375 -0.125,-0.109375 -0.046875,0 -0.046875,0.015625 -0.171875,0.15625 L 5.65625,-6.3125 c -0.25,-0.46875 -0.765625,-0.71875 -1.421875,-0.71875 -1.265625,0 -2.453125,1.15625 -2.453125,2.359375 0,0.796875 0.515625,1.265625 1.03125,1.40625 l 1.0625,0.28125 c 0.375,0.09375 0.921875,0.25 0.921875,1.0625 0,0.890625 -0.8125,1.828125 -1.796875,1.828125 -0.640625,0 -1.75,-0.21875 -1.75,-1.453125 0,-0.234375 0.0625,-0.484375 0.0625,-0.53125 0.015625,-0.046875 0.015625,-0.0625 0.015625,-0.078125 0,-0.09375 -0.0625,-0.109375 -0.109375,-0.109375 -0.046875,0 -0.078125,0.015625 -0.109375,0.046875 -0.03125,0.03125 -0.59375,2.3125 -0.59375,2.34375 0,0.046875 0.046875,0.09375 0.109375,0.09375 0.046875,0 0.0625,-0.015625 0.1875,-0.15625 L 1.296875,-0.5 c 0.421875,0.578125 1.109375,0.71875 1.6875,0.71875 1.359375,0 2.53125,-1.328125 2.53125,-2.5625 0,-0.6875 -0.34375,-1.03125 -0.484375,-1.171875 C 4.796875,-3.734375 4.640625,-3.78125 3.765625,-4 3.53125,-4.0625 3.1875,-4.171875 3.09375,-4.1875 2.828125,-4.28125 2.484375,-4.5625 2.484375,-5.09375 c 0,-0.8125 0.796875,-1.65625 1.75,-1.65625 0.8125,0 1.421875,0.4375 1.421875,1.546875 0,0.3125 -0.03125,0.5 -0.03125,0.5625 0,0 0,0.09375 0.109375,0.09375 0.109375,0 0.125,-0.03125 0.15625,-0.203125 z m 0,0"
             id="id-95e5870a-a9ee-4ec1-8897-1911cbb6efd4" />
        </g>
      </g>
      <g
         fill="#000000"
         fill-opacity="1"
         id="id-73976943-4aef-4edd-b175-3a15dbe9aeef"
         transform="translate(-300.851,-139.689)">
        <g
           transform="translate(306.444,148.214)"
           id="g4552">
          <path
             d="M 3.515625,-1.265625 H 3.28125 c -0.015625,0.15625 -0.09375,0.5625 -0.1875,0.625 C 3.046875,-0.59375 2.515625,-0.59375 2.40625,-0.59375 H 1.125 c 0.734375,-0.640625 0.984375,-0.84375 1.390625,-1.171875 0.515625,-0.40625 1,-0.84375 1,-1.5 0,-0.84375 -0.734375,-1.359375 -1.625,-1.359375 -0.859375,0 -1.453125,0.609375 -1.453125,1.25 0,0.34375 0.296875,0.390625 0.375,0.390625 0.15625,0 0.359375,-0.125 0.359375,-0.375 0,-0.125 -0.046875,-0.375 -0.40625,-0.375 C 0.984375,-4.21875 1.453125,-4.375 1.78125,-4.375 c 0.703125,0 1.0625,0.546875 1.0625,1.109375 0,0.609375 -0.4375,1.078125 -0.65625,1.328125 L 0.515625,-0.265625 C 0.4375,-0.203125 0.4375,-0.1875 0.4375,0 h 2.875 z m 0,0"
             id="id-a67bf8c2-51ef-4ffa-8ef5-295d1ff1b3a1" />
        </g>
      </g>
    </g>
    <g
       transform="matrix(0.458611 0 0 0.458611 104.092 200.798)"
       ns1:version="1.9.0"
       ns1:texconverter="pdflatex"
       ns1:pdfconverter="inkscape"
       ns1:text="$$G_{1,1}$$"
       ns1:preamble="/home/buyolitsez/.config/inkscape/extensions/textext/default_packages.tex"
       ns1:scale="1.3"
       ns1:alignment="middle center"
       ns1:stroke-to-path="0"
       ns1:inkscapeversion="1.3"
       id="g7163"
       ns1:jacobian_sqrt="0.458611">
      <defs
         id="id-a1adfa53-9095-45dc-ad8a-d704df3772bf">
        <g
           id="id-a1b3fef9-ecf0-4f70-8d8e-bb24803ff718">
          <g
             id="id-36406428-2137-4338-be8c-60a181a9e930" />
          <g
             id="id-0ef11da7-cf34-49b9-bb8d-c1539c528e03">
            <path
               d="m 7.578125,-6.921875 c 0,-0.03125 -0.015625,-0.109375 -0.109375,-0.109375 -0.03125,0 -0.046875,0.015625 -0.15625,0.125 L 6.625,-6.140625 C 6.53125,-6.28125 6.078125,-7.03125 4.96875,-7.03125 2.734375,-7.03125 0.5,-4.828125 0.5,-2.515625 c 0,1.59375 1.109375,2.734375 2.71875,2.734375 0.4375,0 0.890625,-0.09375 1.25,-0.234375 0.5,-0.203125 0.6875,-0.40625 0.859375,-0.609375 0.09375,0.25 0.359375,0.609375 0.453125,0.609375 0.046875,0 0.078125,-0.03125 0.078125,-0.03125 C 5.875,-0.0625 5.96875,-0.453125 6.015625,-0.65625 l 0.1875,-0.765625 C 6.25,-1.59375 6.296875,-1.765625 6.34375,-1.9375 c 0.109375,-0.4375 0.109375,-0.46875 0.6875,-0.46875 0.046875,0 0.15625,-0.015625 0.15625,-0.203125 0,-0.078125 -0.046875,-0.109375 -0.125,-0.109375 -0.234375,0 -0.828125,0.03125 -1.046875,0.03125 -0.3125,0 -1.09375,-0.03125 -1.40625,-0.03125 -0.078125,0 -0.203125,0 -0.203125,0.203125 0,0.109375 0.078125,0.109375 0.296875,0.109375 0.015625,0 0.296875,0 0.53125,0.015625 0.265625,0.03125 0.3125,0.0625 0.3125,0.1875 0,0.09375 -0.109375,0.53125 -0.21875,0.90625 -0.28125,1.09375 -1.5625,1.203125 -1.921875,1.203125 -0.953125,0 -2,-0.5625 -2,-2.09375 0,-0.3125 0.09375,-1.953125 1.140625,-3.25 0.546875,-0.671875 1.515625,-1.28125 2.5,-1.28125 1.015625,0 1.609375,0.765625 1.609375,1.921875 0,0.40625 -0.03125,0.40625 -0.03125,0.515625 0,0.09375 0.109375,0.09375 0.140625,0.09375 0.125,0 0.125,-0.015625 0.1875,-0.203125 z m 0,0"
               id="id-c50f7d20-e692-44aa-988f-df25c4dccbfe" />
          </g>
          <g
             id="id-03970d92-b1a7-4e7b-95b6-fadc25df9bc4" />
          <g
             id="id-5bd56039-0f45-49d2-9662-28018a0bbcfb">
            <path
               d="m 2.328125,-4.4375 c 0,-0.1875 0,-0.1875 -0.203125,-0.1875 -0.453125,0.4375 -1.078125,0.4375 -1.359375,0.4375 v 0.25 c 0.15625,0 0.625,0 1,-0.1875 v 3.546875 c 0,0.234375 0,0.328125 -0.6875,0.328125 H 0.8125 V 0 c 0.125,0 0.984375,-0.03125 1.234375,-0.03125 0.21875,0 1.09375,0.03125 1.25,0.03125 V -0.25 H 3.03125 c -0.703125,0 -0.703125,-0.09375 -0.703125,-0.328125 z m 0,0"
               id="id-d5aace54-aa29-473e-a1c8-bf684d33aed6" />
          </g>
          <g
             id="id-62def9b3-96ec-4650-b69e-f5781b4208ba" />
          <g
             id="id-4ccb29ac-ee14-4481-9640-252e76536b64">
            <path
               d="m 1.46875,-0.109375 c 0,0.375 -0.0625,0.828125 -0.546875,1.265625 C 0.90625,1.1875 0.875,1.21875 0.875,1.25 c 0,0.046875 0.0625,0.09375 0.09375,0.09375 0.109375,0 0.703125,-0.5625 0.703125,-1.390625 0,-0.421875 -0.171875,-0.75 -0.5,-0.75 -0.21875,0 -0.390625,0.171875 -0.390625,0.390625 C 0.78125,-0.1875 0.9375,0 1.1875,0 1.359375,0 1.46875,-0.109375 1.46875,-0.109375 Z m 0,0"
               id="id-2796df93-8bb5-4bb7-8205-aaeff3b66315" />
          </g>
        </g>
      </defs>
      <g
         transform="translate(-0.58503073,-0.91472838)"
         ns1:version="1.9.0"
         ns1:texconverter="pdflatex"
         ns1:pdfconverter="inkscape"
         ns1:text="$$G_{1,2}$$"
         ns1:preamble="/home/buyolitsez/.config/inkscape/extensions/textext/default_packages.tex"
         ns1:scale="1.3"
         ns1:alignment="middle center"
         ns1:stroke-to-path="0"
         ns1:inkscapeversion="1.3"
         id="g3727"
         ns1:jacobian_sqrt="1.0">
        <defs
           id="id-b6520dd4-d383-47b8-9474-2f86564a24cf">
          <g
             id="id-eaa5be20-75d0-48fb-ace3-4ec965a47908">
            <g
               id="id-a2351e59-02ac-4adb-90a2-aee8d3078de2" />
            <g
               id="id-649ea390-a18f-48a8-aa26-0dcc790f2ede">
              <path
                 d="m 7.578125,-6.921875 c 0,-0.03125 -0.015625,-0.109375 -0.109375,-0.109375 -0.03125,0 -0.046875,0.015625 -0.15625,0.125 L 6.625,-6.140625 C 6.53125,-6.28125 6.078125,-7.03125 4.96875,-7.03125 2.734375,-7.03125 0.5,-4.828125 0.5,-2.515625 c 0,1.59375 1.109375,2.734375 2.71875,2.734375 0.4375,0 0.890625,-0.09375 1.25,-0.234375 0.5,-0.203125 0.6875,-0.40625 0.859375,-0.609375 0.09375,0.25 0.359375,0.609375 0.453125,0.609375 0.046875,0 0.078125,-0.03125 0.078125,-0.03125 C 5.875,-0.0625 5.96875,-0.453125 6.015625,-0.65625 l 0.1875,-0.765625 C 6.25,-1.59375 6.296875,-1.765625 6.34375,-1.9375 c 0.109375,-0.4375 0.109375,-0.46875 0.6875,-0.46875 0.046875,0 0.15625,-0.015625 0.15625,-0.203125 0,-0.078125 -0.046875,-0.109375 -0.125,-0.109375 -0.234375,0 -0.828125,0.03125 -1.046875,0.03125 -0.3125,0 -1.09375,-0.03125 -1.40625,-0.03125 -0.078125,0 -0.203125,0 -0.203125,0.203125 0,0.109375 0.078125,0.109375 0.296875,0.109375 0.015625,0 0.296875,0 0.53125,0.015625 0.265625,0.03125 0.3125,0.0625 0.3125,0.1875 0,0.09375 -0.109375,0.53125 -0.21875,0.90625 -0.28125,1.09375 -1.5625,1.203125 -1.921875,1.203125 -0.953125,0 -2,-0.5625 -2,-2.09375 0,-0.3125 0.09375,-1.953125 1.140625,-3.25 0.546875,-0.671875 1.515625,-1.28125 2.5,-1.28125 1.015625,0 1.609375,0.765625 1.609375,1.921875 0,0.40625 -0.03125,0.40625 -0.03125,0.515625 0,0.09375 0.109375,0.09375 0.140625,0.09375 0.125,0 0.125,-0.015625 0.1875,-0.203125 z m 0,0"
                 id="id-7dfcf7c7-0a96-49c3-9675-3af1a6fd8729" />
            </g>
            <g
               id="id-34a2b451-e7ed-45cd-ac20-688a38d040cb" />
            <g
               id="id-e038f70d-56b0-476f-af9d-35284697a229">
              <path
                 d="m 2.328125,-4.4375 c 0,-0.1875 0,-0.1875 -0.203125,-0.1875 -0.453125,0.4375 -1.078125,0.4375 -1.359375,0.4375 v 0.25 c 0.15625,0 0.625,0 1,-0.1875 v 3.546875 c 0,0.234375 0,0.328125 -0.6875,0.328125 H 0.8125 V 0 c 0.125,0 0.984375,-0.03125 1.234375,-0.03125 0.21875,0 1.09375,0.03125 1.25,0.03125 V -0.25 H 3.03125 c -0.703125,0 -0.703125,-0.09375 -0.703125,-0.328125 z m 0,0"
                 id="id-53f8754b-e33d-4688-aca2-b9a8e2688c91" />
            </g>
            <g
               id="id-8e693189-6c80-4298-8c6d-6a64f8b20557">
              <path
                 d="M 3.515625,-1.265625 H 3.28125 c -0.015625,0.15625 -0.09375,0.5625 -0.1875,0.625 C 3.046875,-0.59375 2.515625,-0.59375 2.40625,-0.59375 H 1.125 c 0.734375,-0.640625 0.984375,-0.84375 1.390625,-1.171875 0.515625,-0.40625 1,-0.84375 1,-1.5 0,-0.84375 -0.734375,-1.359375 -1.625,-1.359375 -0.859375,0 -1.453125,0.609375 -1.453125,1.25 0,0.34375 0.296875,0.390625 0.375,0.390625 0.15625,0 0.359375,-0.125 0.359375,-0.375 0,-0.125 -0.046875,-0.375 -0.40625,-0.375 C 0.984375,-4.21875 1.453125,-4.375 1.78125,-4.375 c 0.703125,0 1.0625,0.546875 1.0625,1.109375 0,0.609375 -0.4375,1.078125 -0.65625,1.328125 L 0.515625,-0.265625 C 0.4375,-0.203125 0.4375,-0.1875 0.4375,0 h 2.875 z m 0,0"
                 id="id-ce5e5252-c8d9-42d7-ad8f-59ccfef7c1ae" />
            </g>
            <g
               id="id-25b3f814-fafe-4004-9710-7829dd2a536b" />
            <g
               id="id-ec90ccfa-0e78-493b-9a6b-f7132956c682">
              <path
                 d="m 1.46875,-0.109375 c 0,0.375 -0.0625,0.828125 -0.546875,1.265625 C 0.90625,1.1875 0.875,1.21875 0.875,1.25 c 0,0.046875 0.0625,0.09375 0.09375,0.09375 0.109375,0 0.703125,-0.5625 0.703125,-1.390625 0,-0.421875 -0.171875,-0.75 -0.5,-0.75 -0.21875,0 -0.390625,0.171875 -0.390625,0.390625 C 0.78125,-0.1875 0.9375,0 1.1875,0 1.359375,0 1.46875,-0.109375 1.46875,-0.109375 Z m 0,0"
                 id="id-7812f5fe-69be-46d3-a52d-1df83116b0a1" />
            </g>
          </g>
        </defs>
        <g
           fill="#000000"
           fill-opacity="1"
           id="id-bac78f0b-9719-4cd1-b4e9-aa7aad94ee06"
           transform="translate(-296.804,-139.689)">
          <g
             transform="translate(296.304,146.72)"
             id="g9070">
            <path
               d="m 7.578125,-6.921875 c 0,-0.03125 -0.015625,-0.109375 -0.109375,-0.109375 -0.03125,0 -0.046875,0.015625 -0.15625,0.125 L 6.625,-6.140625 C 6.53125,-6.28125 6.078125,-7.03125 4.96875,-7.03125 2.734375,-7.03125 0.5,-4.828125 0.5,-2.515625 c 0,1.59375 1.109375,2.734375 2.71875,2.734375 0.4375,0 0.890625,-0.09375 1.25,-0.234375 0.5,-0.203125 0.6875,-0.40625 0.859375,-0.609375 0.09375,0.25 0.359375,0.609375 0.453125,0.609375 0.046875,0 0.078125,-0.03125 0.078125,-0.03125 C 5.875,-0.0625 5.96875,-0.453125 6.015625,-0.65625 l 0.1875,-0.765625 C 6.25,-1.59375 6.296875,-1.765625 6.34375,-1.9375 c 0.109375,-0.4375 0.109375,-0.46875 0.6875,-0.46875 0.046875,0 0.15625,-0.015625 0.15625,-0.203125 0,-0.078125 -0.046875,-0.109375 -0.125,-0.109375 -0.234375,0 -0.828125,0.03125 -1.046875,0.03125 -0.3125,0 -1.09375,-0.03125 -1.40625,-0.03125 -0.078125,0 -0.203125,0 -0.203125,0.203125 0,0.109375 0.078125,0.109375 0.296875,0.109375 0.015625,0 0.296875,0 0.53125,0.015625 0.265625,0.03125 0.3125,0.0625 0.3125,0.1875 0,0.09375 -0.109375,0.53125 -0.21875,0.90625 -0.28125,1.09375 -1.5625,1.203125 -1.921875,1.203125 -0.953125,0 -2,-0.5625 -2,-2.09375 0,-0.3125 0.09375,-1.953125 1.140625,-3.25 0.546875,-0.671875 1.515625,-1.28125 2.5,-1.28125 1.015625,0 1.609375,0.765625 1.609375,1.921875 0,0.40625 -0.03125,0.40625 -0.03125,0.515625 0,0.09375 0.109375,0.09375 0.140625,0.09375 0.125,0 0.125,-0.015625 0.1875,-0.203125 z m 0,0"
               id="id-0a93f613-dd67-440b-abbb-57fc81904c5d" />
          </g>
        </g>
        <g
           fill="#000000"
           fill-opacity="1"
           id="id-444a1e16-aafc-4c6c-b65f-f137bcac39ee"
           transform="translate(-296.804,-139.689)">
          <g
             transform="translate(304.137,148.214)"
             id="g2120">
            <path
               d="m 2.328125,-4.4375 c 0,-0.1875 0,-0.1875 -0.203125,-0.1875 -0.453125,0.4375 -1.078125,0.4375 -1.359375,0.4375 v 0.25 c 0.15625,0 0.625,0 1,-0.1875 v 3.546875 c 0,0.234375 0,0.328125 -0.6875,0.328125 H 0.8125 V 0 c 0.125,0 0.984375,-0.03125 1.234375,-0.03125 0.21875,0 1.09375,0.03125 1.25,0.03125 V -0.25 H 3.03125 c -0.703125,0 -0.703125,-0.09375 -0.703125,-0.328125 z m 0,0"
               id="id-488e79c8-7074-4858-bb8b-f31d55c3d727" />
          </g>
        </g>
        <g
           fill="#000000"
           fill-opacity="1"
           id="id-9c15d196-740a-4fa9-8541-6a09f4f48080"
           transform="translate(-296.804,-139.689)">
          <g
             transform="translate(308.108,148.214)"
             id="g6349">
            <path
               d="m 1.46875,-0.109375 c 0,0.375 -0.0625,0.828125 -0.546875,1.265625 C 0.90625,1.1875 0.875,1.21875 0.875,1.25 c 0,0.046875 0.0625,0.09375 0.09375,0.09375 0.109375,0 0.703125,-0.5625 0.703125,-1.390625 0,-0.421875 -0.171875,-0.75 -0.5,-0.75 -0.21875,0 -0.390625,0.171875 -0.390625,0.390625 C 0.78125,-0.1875 0.9375,0 1.1875,0 1.359375,0 1.46875,-0.109375 1.46875,-0.109375 Z m 0,0"
               id="id-2d0ae518-8bf8-494d-9c8f-2eca5dfad6b0" />
          </g>
        </g>
        <g
           fill="#000000"
           fill-opacity="1"
           id="id-50a41f79-26e4-46b3-98f0-2a2d0752e3db"
           transform="translate(-296.804,-139.689)">
          <g
             transform="translate(310.474,148.214)"
             id="g8609">
            <path
               d="M 3.515625,-1.265625 H 3.28125 c -0.015625,0.15625 -0.09375,0.5625 -0.1875,0.625 C 3.046875,-0.59375 2.515625,-0.59375 2.40625,-0.59375 H 1.125 c 0.734375,-0.640625 0.984375,-0.84375 1.390625,-1.171875 0.515625,-0.40625 1,-0.84375 1,-1.5 0,-0.84375 -0.734375,-1.359375 -1.625,-1.359375 -0.859375,0 -1.453125,0.609375 -1.453125,1.25 0,0.34375 0.296875,0.390625 0.375,0.390625 0.15625,0 0.359375,-0.125 0.359375,-0.375 0,-0.125 -0.046875,-0.375 -0.40625,-0.375 C 0.984375,-4.21875 1.453125,-4.375 1.78125,-4.375 c 0.703125,0 1.0625,0.546875 1.0625,1.109375 0,0.609375 -0.4375,1.078125 -0.65625,1.328125 L 0.515625,-0.265625 C 0.4375,-0.203125 0.4375,-0.1875 0.4375,0 h 2.875 z m 0,0"
               id="id-4a110051-ff58-4265-b4b6-5333d8d10ba3" />
          </g>
        </g>
      </g>
    </g>
    <path
       style="fill:#008080;fill-opacity:1;fill-rule:evenodd;stroke:#008080;stroke-width:0.499999;paint-order:stroke fill markers"
       id="path6"
       d="m 78.065359,209.43654 c 0.991674,-0.32184 1.974395,-0.67053 2.962651,-1.00273 0.893212,-0.29654 1.792187,-0.57607 2.696181,-0.83792 0.446952,-0.13054 0.896516,-0.25168 1.337791,-0.40068 0.33255,-0.11978 0.673674,-0.21209 1.010777,-0.31751 0.198774,-0.0533 0.387718,-0.13336 0.589672,-0.17458 0.14202,-0.0252 0.286507,-0.0278 0.430326,-0.0289 0.100732,-2.7e-4 0.201459,0.001 0.302183,0.002 0.03729,1.2e-4 0.07459,2.4e-4 0.111885,2.6e-4 0,0 -0.806408,-0.58627 -0.806408,-0.58627 v 0 c -0.03719,-8e-5 -0.07438,-2e-4 -0.111567,-5.2e-4 -0.100613,-2.7e-4 -0.201239,-5.3e-4 -0.301842,0.001 -0.147769,0.004 -0.296031,0.0129 -0.440523,0.0466 -0.200345,0.0503 -0.391742,0.12837 -0.590783,0.18352 -0.335949,0.10635 -0.674521,0.20437 -1.006747,0.32231 -0.439307,0.145 -0.88514,0.26831 -1.327447,0.40368 -0.896614,0.27149 -1.788371,0.55895 -2.677101,0.85517 -0.994551,0.3353 -1.984574,0.68718 -2.993311,0.97801 z" />
    <path
       style="fill:#008080;fill-opacity:1;fill-rule:evenodd;stroke:#008080;stroke-width:0.499999;paint-order:stroke fill markers"
       id="path7"
       d="m 81.436999,213.10576 c 0.991674,-0.32184 1.974395,-0.67053 2.962651,-1.00273 0.893212,-0.29654 1.792187,-0.57607 2.696181,-0.83792 0.446952,-0.13054 0.896516,-0.25168 1.337791,-0.40068 0.33255,-0.11978 0.673674,-0.21209 1.010777,-0.31751 0.198774,-0.0533 0.387718,-0.13336 0.589672,-0.17458 0.14202,-0.0252 0.286507,-0.0278 0.430326,-0.0289 0.100732,-2.7e-4 0.201459,0.001 0.302183,0.002 0.03729,1.2e-4 0.07459,2.4e-4 0.111885,2.6e-4 0,0 -0.806408,-0.58627 -0.806408,-0.58627 v 0 c -0.03719,-8e-5 -0.07438,-2e-4 -0.111567,-5.2e-4 -0.100613,-2.7e-4 -0.201239,-5.3e-4 -0.301842,0.001 -0.147769,0.004 -0.296031,0.0129 -0.440523,0.0466 -0.200345,0.0503 -0.391742,0.12837 -0.590783,0.18352 -0.335949,0.10635 -0.674521,0.20437 -1.006747,0.32231 -0.439307,0.145 -0.88514,0.26831 -1.327447,0.40368 -0.896614,0.27149 -1.788371,0.55895 -2.677101,0.85517 -0.994551,0.3353 -1.984574,0.68718 -2.993311,0.97801 z" />
    <path
       style="fill:#008080;fill-opacity:1;fill-rule:evenodd;stroke:#008080;stroke-width:0.499999;paint-order:stroke fill markers"
       id="path8"
       d="m 85.197024,217.16376 c 0.991674,-0.32184 1.974395,-0.67053 2.962651,-1.00273 0.893212,-0.29654 1.792187,-0.57607 2.696181,-0.83792 0.446952,-0.13054 0.896516,-0.25168 1.337791,-0.40068 0.33255,-0.11978 0.673674,-0.21209 1.010777,-0.31751 0.198774,-0.0533 0.387718,-0.13336 0.589672,-0.17458 0.14202,-0.0252 0.286507,-0.0278 0.430326,-0.0289 0.100732,-2.7e-4 0.201459,0.001 0.302183,0.002 0.03729,1.2e-4 0.07459,2.4e-4 0.111885,2.6e-4 0,0 -0.806408,-0.58627 -0.806408,-0.58627 v 0 c -0.03719,-8e-5 -0.07438,-2e-4 -0.111567,-5.2e-4 -0.100613,-2.7e-4 -0.201239,-5.3e-4 -0.301842,0.001 -0.147769,0.004 -0.296031,0.0129 -0.440523,0.0466 -0.200345,0.0503 -0.391742,0.12837 -0.590783,0.18352 -0.335949,0.10635 -0.674521,0.20437 -1.006747,0.32231 -0.439307,0.145 -0.88514,0.26831 -1.327447,0.40368 -0.896614,0.27149 -1.788371,0.55895 -2.677101,0.85517 -0.994551,0.3353 -1.984574,0.68718 -2.993311,0.97801 z" />
    <path
       style="fill:#008080;fill-opacity:1;fill-rule:evenodd;stroke:#008080;stroke-width:0.499999;paint-order:stroke fill markers"
       id="path9"
       d="m 88.690526,220.93322 c 0.991674,-0.32184 1.974395,-0.67053 2.962651,-1.00273 0.893212,-0.29654 1.792187,-0.57607 2.696181,-0.83792 0.446952,-0.13054 0.896516,-0.25168 1.337791,-0.40068 0.33255,-0.11978 0.673674,-0.21209 1.010777,-0.31751 0.198774,-0.0533 0.387718,-0.13336 0.589672,-0.17458 0.14202,-0.0252 0.286507,-0.0278 0.430326,-0.0289 0.100732,-2.7e-4 0.201459,0.001 0.302183,0.002 0.03729,1.2e-4 0.07459,2.4e-4 0.111885,2.6e-4 0,0 -0.806408,-0.58627 -0.806408,-0.58627 v 0 c -0.03719,-8e-5 -0.07438,-2e-4 -0.111567,-5.2e-4 -0.100613,-2.7e-4 -0.201239,-5.3e-4 -0.301842,0.001 -0.147769,0.004 -0.296031,0.0129 -0.440523,0.0466 -0.200345,0.0503 -0.391742,0.12837 -0.590783,0.18352 -0.335949,0.10635 -0.674521,0.20437 -1.006747,0.32231 -0.439307,0.145 -0.88514,0.26831 -1.327447,0.40368 -0.896614,0.27149 -1.788371,0.55895 -2.677101,0.85517 -0.994551,0.3353 -1.984574,0.68718 -2.993311,0.97801 z" />
    <path
       style="fill:#008080;fill-opacity:1;fill-rule:evenodd;stroke:#008080;stroke-width:0.499999;paint-order:stroke fill markers"
       id="path10"
       d="m 92.071601,224.59497 c 0.991674,-0.32184 1.974395,-0.67053 2.962651,-1.00273 0.893212,-0.29654 1.792187,-0.57607 2.696181,-0.83792 0.446952,-0.13054 0.896516,-0.25168 1.337791,-0.40068 0.33255,-0.11978 0.673674,-0.21209 1.010776,-0.31751 0.19877,-0.0533 0.38772,-0.13336 0.58967,-0.17458 0.14202,-0.0252 0.28651,-0.0278 0.43033,-0.0289 0.10073,-2.7e-4 0.20146,0.001 0.30218,0.002 0.0373,1.2e-4 0.0746,2.4e-4 0.11189,2.6e-4 0,0 -0.80641,-0.58627 -0.80641,-0.58627 v 0 c -0.0372,-8e-5 -0.0744,-2e-4 -0.11157,-5.2e-4 -0.10061,-2.7e-4 -0.20124,-5.3e-4 -0.30184,0.001 -0.14777,0.004 -0.296031,0.0129 -0.440523,0.0466 -0.200345,0.0503 -0.391742,0.12837 -0.590783,0.18352 -0.335949,0.10635 -0.674521,0.20437 -1.006747,0.32231 -0.439307,0.145 -0.88514,0.26831 -1.327447,0.40368 -0.896614,0.27149 -1.788371,0.55895 -2.677101,0.85517 -0.994551,0.3353 -1.984574,0.68718 -2.993311,0.97801 z" />
    <path
       style="fill:#008080;fill-opacity:1;fill-rule:evenodd;stroke:#008080;stroke-width:0.499999;paint-order:stroke fill markers"
       id="path11"
       d="m 96.356418,229.14906 c 0.991674,-0.32184 1.974395,-0.67053 2.962651,-1.00273 0.893211,-0.29654 1.792191,-0.57607 2.696181,-0.83792 0.44695,-0.13054 0.89652,-0.25168 1.33779,-0.40068 0.33255,-0.11978 0.67368,-0.21209 1.01078,-0.31751 0.19877,-0.0533 0.38772,-0.13336 0.58967,-0.17458 0.14202,-0.0252 0.28651,-0.0278 0.43033,-0.0289 0.10073,-2.7e-4 0.20146,0.001 0.30218,0.002 0.0373,1.2e-4 0.0746,2.4e-4 0.11189,2.6e-4 0,0 -0.80641,-0.58627 -0.80641,-0.58627 v 0 c -0.0372,-8e-5 -0.0744,-2e-4 -0.11157,-5.2e-4 -0.10061,-2.7e-4 -0.20124,-5.3e-4 -0.30184,0.001 -0.14777,0.004 -0.29603,0.0129 -0.44053,0.0466 -0.20034,0.0503 -0.39174,0.12837 -0.59078,0.18352 -0.33595,0.10635 -0.67452,0.20437 -1.00675,0.32231 -0.4393,0.145 -0.88514,0.26831 -1.32744,0.40368 -0.89662,0.27149 -1.788374,0.55895 -2.677104,0.85517 -0.994551,0.3353 -1.984574,0.68718 -2.993311,0.97801 z" />
    <path
       style="fill:#008080;fill-opacity:1;fill-rule:evenodd;stroke:#008080;stroke-width:0.499999;paint-order:stroke fill markers"
       id="path12"
       d="m 103.12014,234.64974 c 0.99167,-0.32184 1.97439,-0.67053 2.96265,-1.00273 0.89321,-0.29654 1.79219,-0.57607 2.69618,-0.83792 0.44695,-0.13054 0.89652,-0.25168 1.33779,-0.40068 0.33255,-0.11978 0.67368,-0.21209 1.01078,-0.31751 0.19877,-0.0533 0.38772,-0.13336 0.58967,-0.17458 0.14202,-0.0252 0.28651,-0.0278 0.43033,-0.0289 0.10073,-2.7e-4 0.20146,0.001 0.30218,0.002 0.0373,1.2e-4 0.0746,2.4e-4 0.11189,2.6e-4 0,0 -0.80641,-0.58627 -0.80641,-0.58627 v 0 c -0.0372,-8e-5 -0.0744,-2e-4 -0.11157,-5.2e-4 -0.10061,-2.7e-4 -0.20124,-5.3e-4 -0.30184,0.001 -0.14777,0.004 -0.29603,0.0129 -0.44053,0.0466 -0.20034,0.0503 -0.39174,0.12837 -0.59078,0.18352 -0.33595,0.10635 -0.67452,0.20437 -1.00675,0.32231 -0.4393,0.145 -0.88514,0.26831 -1.32744,0.40368 -0.89662,0.27149 -1.78837,0.55895 -2.6771,0.85517 -0.99455,0.3353 -1.98458,0.68718 -2.99331,0.97801 z" />
    <path
       style="fill:#008080;fill-opacity:1;fill-rule:evenodd;stroke:#008080;stroke-width:0.499999;paint-order:stroke fill markers"
       id="path13"
       d="m 106.25985,239.51871 c 0.99167,-0.32184 1.97439,-0.67053 2.96265,-1.00273 0.89321,-0.29654 1.79219,-0.57607 2.69618,-0.83792 0.44695,-0.13054 0.89652,-0.25168 1.33779,-0.40068 0.33255,-0.11978 0.67368,-0.21209 1.01078,-0.31751 0.19877,-0.0533 0.38772,-0.13336 0.58967,-0.17458 0.14202,-0.0252 0.28651,-0.0278 0.43033,-0.0289 0.10073,-2.7e-4 0.20146,10e-4 0.30218,0.002 0.0373,1.2e-4 0.0746,2.4e-4 0.11189,2.6e-4 0,0 -0.80641,-0.58627 -0.80641,-0.58627 v 0 c -0.0372,-8e-5 -0.0744,-2e-4 -0.11157,-5.2e-4 -0.10061,-2.7e-4 -0.20124,-5.3e-4 -0.30184,10e-4 -0.14777,0.004 -0.29603,0.0129 -0.44053,0.0466 -0.20034,0.0503 -0.39174,0.12837 -0.59078,0.18352 -0.33595,0.10635 -0.67452,0.20437 -1.00675,0.32231 -0.4393,0.145 -0.88514,0.26831 -1.32744,0.40368 -0.89662,0.27149 -1.78837,0.55895 -2.6771,0.85517 -0.99455,0.3353 -1.98458,0.68718 -2.99331,0.97801 z" />
    <path
       style="fill:#008080;fill-opacity:1;fill-rule:evenodd;stroke:#008080;stroke-width:0.499999;paint-order:stroke fill markers"
       id="path14"
       d="m 99.879796,231.45539 c 0.991674,-0.32184 1.974394,-0.67053 2.962654,-1.00273 0.89321,-0.29654 1.79219,-0.57607 2.69618,-0.83792 0.44695,-0.13054 0.89652,-0.25168 1.33779,-0.40068 0.33255,-0.11978 0.67368,-0.21209 1.01078,-0.31751 0.19877,-0.0533 0.38772,-0.13336 0.58967,-0.17458 0.14202,-0.0252 0.28651,-0.0278 0.43033,-0.0289 0.10073,-2.7e-4 0.20146,0.001 0.30218,0.002 0.0373,1.2e-4 0.0746,2.4e-4 0.11189,2.6e-4 0,0 -0.80641,-0.58627 -0.80641,-0.58627 v 0 c -0.0372,-8e-5 -0.0744,-2e-4 -0.11157,-5.2e-4 -0.10061,-2.7e-4 -0.20124,-5.3e-4 -0.30184,0.001 -0.14777,0.004 -0.29603,0.0129 -0.44053,0.0466 -0.20034,0.0503 -0.39174,0.12837 -0.59078,0.18352 -0.33595,0.10635 -0.67452,0.20437 -1.00675,0.32231 -0.4393,0.145 -0.88514,0.26831 -1.32744,0.40368 -0.89662,0.27149 -1.78837,0.55895 -2.6771,0.85517 -0.99455,0.3353 -1.98458,0.68718 -2.993314,0.97801 z" />
    <path
       style="fill:#008080;fill-opacity:1;fill-rule:evenodd;stroke:#008080;stroke-width:0.499999;paint-order:stroke fill markers"
       id="path15"
       d="m 112.99664,227.22881 c 0.9288,0.47366 1.87024,0.92198 2.80395,1.38589 0.8413,0.42187 1.67462,0.85991 2.49899,1.31398 0.40834,0.22375 0.81191,0.45594 1.22928,0.66262 0.31983,0.1505 0.62634,0.32639 0.93926,0.4902 0.17825,0.10284 0.3685,0.1798 0.5404,0.29353 0.11824,0.0826 0.22225,0.18293 0.32471,0.28388 0.0714,0.071 0.14176,0.14316 0.21228,0.21505 0.0262,0.0267 0.0526,0.0529 0.079,0.0793 0,0 -0.15567,-0.98477 -0.15567,-0.98477 v 0 c -0.0261,-0.0266 -0.0524,-0.0528 -0.0785,-0.0793 -0.071,-0.0713 -0.14193,-0.14267 -0.21417,-0.21268 -0.10732,-0.10164 -0.21843,-0.20023 -0.34446,-0.27854 -0.17735,-0.10591 -0.36777,-0.18623 -0.54753,-0.28794 -0.31275,-0.16238 -0.62146,-0.33247 -0.93981,-0.48394 -0.41319,-0.20803 -0.81562,-0.43614 -1.22411,-0.65316 -0.82598,-0.44201 -1.65978,-0.86937 -2.49768,-1.2883 -0.94037,-0.46612 -1.88924,-0.91739 -2.80817,-1.42503 z" />
    <path
       style="fill:#008080;fill-opacity:1;fill-rule:evenodd;stroke:#008080;stroke-width:0.499999;paint-order:stroke fill markers"
       id="path16"
       d="m 115.19369,223.32452 c 0.9288,0.47366 1.87024,0.92198 2.80395,1.38589 0.8413,0.42187 1.67462,0.85991 2.49899,1.31398 0.40834,0.22375 0.81191,0.45594 1.22928,0.66262 0.31983,0.1505 0.62634,0.32639 0.93926,0.4902 0.17825,0.10284 0.3685,0.1798 0.5404,0.29353 0.11824,0.0826 0.22225,0.18293 0.32471,0.28388 0.0714,0.071 0.14176,0.14316 0.21228,0.21505 0.0262,0.0267 0.0526,0.0529 0.079,0.0793 0,0 -0.15567,-0.98477 -0.15567,-0.98477 v 0 c -0.0261,-0.0266 -0.0524,-0.0528 -0.0785,-0.0793 -0.071,-0.0713 -0.14193,-0.14267 -0.21417,-0.21268 -0.10732,-0.10164 -0.21843,-0.20023 -0.34446,-0.27854 -0.17735,-0.10591 -0.36777,-0.18623 -0.54753,-0.28794 -0.31275,-0.16238 -0.62146,-0.33247 -0.93981,-0.48394 -0.41319,-0.20803 -0.81562,-0.43614 -1.22411,-0.65316 -0.82598,-0.44201 -1.65978,-0.86937 -2.49768,-1.2883 -0.94037,-0.46612 -1.88924,-0.91739 -2.80817,-1.42503 z" />
    <path
       style="fill:#008080;fill-opacity:1;fill-rule:evenodd;stroke:#008080;stroke-width:0.499999;paint-order:stroke fill markers"
       id="path17"
       d="m 119.49659,219.26181 c 0.9288,0.47366 1.87024,0.92198 2.80395,1.38589 0.8413,0.42187 1.67462,0.85991 2.49899,1.31398 0.40834,0.22375 0.81191,0.45594 1.22928,0.66262 0.31983,0.1505 0.62634,0.32639 0.93926,0.4902 0.17825,0.10284 0.3685,0.1798 0.5404,0.29353 0.11824,0.0826 0.22225,0.18293 0.32471,0.28388 0.0714,0.071 0.14176,0.14316 0.21228,0.21505 0.0262,0.0267 0.0526,0.0529 0.079,0.0793 0,0 -0.15567,-0.98477 -0.15567,-0.98477 v 0 c -0.0261,-0.0266 -0.0524,-0.0528 -0.0785,-0.0793 -0.071,-0.0713 -0.14193,-0.14267 -0.21417,-0.21268 -0.10732,-0.10164 -0.21843,-0.20023 -0.34446,-0.27854 -0.17735,-0.10591 -0.36777,-0.18623 -0.54753,-0.28794 -0.31275,-0.16238 -0.62146,-0.33247 -0.93981,-0.48394 -0.41319,-0.20803 -0.81562,-0.43614 -1.22411,-0.65316 -0.82598,-0.44201 -1.65978,-0.86937 -2.49768,-1.2883 -0.94037,-0.46612 -1.88924,-0.91739 -2.80817,-1.42503 z" />
    <path
       style="fill:#008080;fill-opacity:1;fill-rule:evenodd;stroke:#008080;stroke-width:0.499999;paint-order:stroke fill markers"
       id="path18"
       d="m 124.10729,215.14681 c 0.9288,0.47366 1.87024,0.92198 2.80395,1.38589 0.8413,0.42187 1.67462,0.85991 2.49899,1.31398 0.40834,0.22375 0.81191,0.45594 1.22928,0.66262 0.31983,0.1505 0.62634,0.32639 0.93926,0.4902 0.17825,0.10284 0.3685,0.1798 0.5404,0.29353 0.11824,0.0826 0.22225,0.18293 0.32471,0.28388 0.0714,0.071 0.14176,0.14316 0.21228,0.21505 0.0262,0.0267 0.0526,0.0529 0.079,0.0793 0,0 -0.15567,-0.98477 -0.15567,-0.98477 v 0 c -0.0261,-0.0266 -0.0524,-0.0528 -0.0785,-0.0793 -0.071,-0.0713 -0.14193,-0.14267 -0.21417,-0.21268 -0.10732,-0.10164 -0.21843,-0.20023 -0.34446,-0.27854 -0.17735,-0.10591 -0.36777,-0.18623 -0.54753,-0.28794 -0.31275,-0.16238 -0.62146,-0.33247 -0.93981,-0.48394 -0.41319,-0.20803 -0.81562,-0.43614 -1.22411,-0.65316 -0.82598,-0.44201 -1.65978,-0.86937 -2.49768,-1.2883 -0.94037,-0.46612 -1.88924,-0.91739 -2.80817,-1.42503 z" />
    <path
       style="fill:#008080;fill-opacity:1;fill-rule:evenodd;stroke:#008080;stroke-width:0.499999;paint-order:stroke fill markers"
       id="path19"
       d="m 127.90977,211.08999 c 0.9288,0.47366 1.87024,0.92198 2.80395,1.38589 0.8413,0.42187 1.67462,0.85991 2.49899,1.31398 0.40834,0.22375 0.81191,0.45594 1.22928,0.66262 0.31983,0.1505 0.62634,0.32639 0.93926,0.4902 0.17825,0.10284 0.3685,0.1798 0.5404,0.29353 0.11824,0.0826 0.22225,0.18293 0.32471,0.28388 0.0714,0.071 0.14176,0.14316 0.21228,0.21505 0.0262,0.0267 0.0526,0.0529 0.079,0.0793 0,0 -0.15567,-0.98477 -0.15567,-0.98477 v 0 c -0.0261,-0.0266 -0.0524,-0.0528 -0.0785,-0.0793 -0.071,-0.0713 -0.14193,-0.14267 -0.21417,-0.21268 -0.10732,-0.10164 -0.21843,-0.20023 -0.34446,-0.27854 -0.17735,-0.10591 -0.36777,-0.18623 -0.54753,-0.28794 -0.31275,-0.16238 -0.62146,-0.33247 -0.93981,-0.48394 -0.41319,-0.20803 -0.81562,-0.43614 -1.22411,-0.65316 -0.82598,-0.44201 -1.65978,-0.86937 -2.49768,-1.2883 -0.94037,-0.46612 -1.88924,-0.91739 -2.80817,-1.42503 z" />
    <path
       style="fill:#008080;fill-opacity:1;fill-rule:evenodd;stroke:#008080;stroke-width:0.499999;paint-order:stroke fill markers"
       id="path20"
       d="m 131.51452,207.25292 c 0.9288,0.47366 1.87024,0.92198 2.80395,1.38589 0.8413,0.42187 1.67462,0.85991 2.49899,1.31398 0.40834,0.22375 0.81191,0.45594 1.22928,0.66262 0.31983,0.1505 0.62634,0.32639 0.93926,0.4902 0.17825,0.10284 0.3685,0.1798 0.5404,0.29353 0.11824,0.0826 0.22225,0.18293 0.32471,0.28388 0.0714,0.071 0.14176,0.14316 0.21228,0.21505 0.0262,0.0267 0.0526,0.0529 0.079,0.0793 0,0 -0.15567,-0.98477 -0.15567,-0.98477 v 0 c -0.0261,-0.0266 -0.0524,-0.0528 -0.0785,-0.0793 -0.071,-0.0713 -0.14193,-0.14267 -0.21417,-0.21268 -0.10732,-0.10164 -0.21843,-0.20023 -0.34446,-0.27854 -0.17735,-0.10591 -0.36777,-0.18623 -0.54753,-0.28794 -0.31275,-0.16238 -0.62146,-0.33247 -0.93981,-0.48394 -0.41319,-0.20803 -0.81562,-0.43614 -1.22411,-0.65316 -0.82598,-0.44201 -1.65978,-0.86937 -2.49768,-1.2883 -0.94037,-0.46612 -1.88924,-0.91739 -2.80817,-1.42503 z" />
    <path
       style="fill:#008080;fill-opacity:1;fill-rule:evenodd;stroke:#008080;stroke-width:0.499999;paint-order:stroke fill markers"
       id="path21"
       d="m 135.14954,203.9198 c 0.9288,0.47366 1.87024,0.92198 2.80395,1.38589 0.8413,0.42187 1.67462,0.85991 2.49899,1.31398 0.40834,0.22375 0.81191,0.45594 1.22928,0.66262 0.31983,0.1505 0.62634,0.32639 0.93926,0.4902 0.17825,0.10284 0.3685,0.1798 0.5404,0.29353 0.11824,0.0826 0.22225,0.18293 0.32471,0.28388 0.0714,0.071 0.14176,0.14316 0.21228,0.21505 0.0262,0.0267 0.0526,0.0529 0.079,0.0793 0,0 -0.15567,-0.98477 -0.15567,-0.98477 v 0 c -0.0261,-0.0266 -0.0524,-0.0528 -0.0785,-0.0793 -0.071,-0.0713 -0.14193,-0.14267 -0.21417,-0.21268 -0.10732,-0.10164 -0.21843,-0.20023 -0.34446,-0.27854 -0.17735,-0.10591 -0.36777,-0.18623 -0.54753,-0.28794 -0.31275,-0.16238 -0.62146,-0.33247 -0.93981,-0.48394 -0.41319,-0.20803 -0.81562,-0.43614 -1.22411,-0.65316 -0.82598,-0.44201 -1.65978,-0.86937 -2.49768,-1.2883 -0.94037,-0.46612 -1.88924,-0.91739 -2.80817,-1.42503 z" />
  </g>
</svg>
