<?xml version="1.0" encoding="UTF-8" standalone="no"?>
<!-- Created with Inkscape (http://www.inkscape.org/) -->

<svg
   width="240mm"
   height="120mm"
   viewBox="0 0 240 120"
   version="1.1"
   id="svg8"
   inkscape:version="1.3.2 (091e20ef0f, 2023-11-25, custom)"
   sodipodi:docname="theorem_1_2.svg"
   xmlns:inkscape="http://www.inkscape.org/namespaces/inkscape"
   xmlns:sodipodi="http://sodipodi.sourceforge.net/DTD/sodipodi-0.dtd"
   xmlns="http://www.w3.org/2000/svg"
   xmlns:svg="http://www.w3.org/2000/svg"
   xmlns:rdf="http://www.w3.org/1999/02/22-rdf-syntax-ns#"
   xmlns:cc="http://creativecommons.org/ns#"
   xmlns:dc="http://purl.org/dc/elements/1.1/"
   xmlns:ns1="http://www.iki.fi/pav/software/textext/">
  <sodipodi:namedview
     id="base"
     pagecolor="#ffffff"
     bordercolor="#666666"
     borderopacity="1.0"
     inkscape:pageopacity="0.0"
     inkscape:pageshadow="2"
     inkscape:zoom="1.7566803"
     inkscape:cx="417.26431"
     inkscape:cy="228.5561"
     inkscape:document-units="mm"
     inkscape:current-layer="layer1"
     showgrid="false"
     showborder="true"
     width="200mm"
     showguides="true"
     inkscape:guide-bbox="true"
     inkscape:window-width="2560"
     inkscape:window-height="1417"
     inkscape:window-x="0"
     inkscape:window-y="0"
     inkscape:window-maximized="1"
     inkscape:showpageshadow="2"
     inkscape:pagecheckerboard="0"
     inkscape:deskcolor="#d1d1d1">
    <inkscape:grid
       type="xygrid"
       id="grid815"
       units="mm"
       spacingx="10"
       spacingy="10"
       empspacing="4"
       dotted="false"
       originx="0"
       originy="0"
       visible="false" />
  </sodipodi:namedview>
  <defs
     id="defs2" />
  <metadata
     id="metadata5">
    <rdf:RDF>
      <cc:Work
         rdf:about="">
        <dc:format>image/svg+xml</dc:format>
        <dc:type
           rdf:resource="http://purl.org/dc/dcmitype/StillImage" />
        <dc:title />
      </cc:Work>
    </rdf:RDF>
  </metadata>
  <g
     inkscape:label="Layer 1"
     inkscape:groupmode="layer"
     id="layer1"
     transform="translate(0, -177)">
    <rect
       style="fill:#008080;fill-opacity:0;fill-rule:evenodd;stroke:#008080;stroke-width:0.3;stroke-dasharray:none;paint-order:stroke fill markers"
       id="rect1"
       width="12.358709"
       height="46.047752"
       x="131.92448"
       y="205.80345" />
    <rect
       style="fill:#008080;fill-opacity:0;fill-rule:evenodd;stroke:#000000;stroke-width:0.3;stroke-dasharray:none;paint-order:stroke fill markers"
       id="rect2"
       width="12.358709"
       height="46.047752"
       x="-114.56604"
       y="192.49896"
       transform="rotate(-45)" />
    <g
       transform="matrix(0.42333352,0,0,0.42333352,94.921043,246.70525)"
       ns1:version="1.9.0"
       ns1:texconverter="pdflatex"
       ns1:pdfconverter="inkscape"
       ns1:text="$$T$$"
       ns1:preamble="/home/buyolitsez/.config/inkscape/extensions/textext/default_packages.tex"
       ns1:scale="1.1999999915541815"
       ns1:alignment="middle center"
       ns1:stroke-to-path="0"
       ns1:inkscapeversion="0.92.4"
       id="g6"
       ns1:jacobian_sqrt="0.423333516187887">
      <defs
         id="id-c35be1a9-c1b8-48a2-9b3a-149f03ac698a">
        <g
           id="id-6ae96792-8658-4168-9d9b-c03972ac5689">
          <g
             id="id-059ab1c1-abb3-4df7-a86b-ab8a77a71afe">
            <path
               d="m 4.25,-6.046875 c 0.078125,-0.28125 0.109375,-0.34375 0.234375,-0.375 0.09375,-0.015625 0.421875,-0.015625 0.625,-0.015625 1.015625,0 1.453125,0.03125 1.453125,0.8125 0,0.15625 -0.03125,0.546875 -0.078125,0.796875 0,0.046875 -0.03125,0.15625 -0.03125,0.1875 0,0.0625 0.03125,0.140625 0.125,0.140625 0.109375,0 0.125,-0.078125 0.15625,-0.234375 L 7,-6.46875 C 7.015625,-6.515625 7.015625,-6.609375 7.015625,-6.640625 7.015625,-6.75 6.921875,-6.75 6.75,-6.75 H 1.21875 c -0.234375,0 -0.25,0.015625 -0.328125,0.203125 l -0.59375,1.75 c 0,0.015625 -0.0625,0.15625 -0.0625,0.1875 0,0.046875 0.0625,0.109375 0.125,0.109375 0.09375,0 0.109375,-0.0625 0.171875,-0.21875 C 1.0625,-6.265625 1.328125,-6.4375 2.796875,-6.4375 H 3.1875 c 0.28125,0 0.28125,0.03125 0.28125,0.125 0,0.046875 -0.03125,0.171875 -0.046875,0.203125 L 2.09375,-0.78125 C 2,-0.421875 1.96875,-0.3125 0.90625,-0.3125 c -0.359375,0 -0.421875,0 -0.421875,0.1875 C 0.484375,0 0.59375,0 0.65625,0 c 0.265625,0 0.546875,-0.015625 0.8125,-0.015625 0.28125,0 0.578125,-0.015625 0.859375,-0.015625 0.28125,0 0.546875,0.015625 0.828125,0.015625 C 3.4375,-0.015625 3.734375,0 4.015625,0 c 0.09375,0 0.21875,0 0.21875,-0.203125 0,-0.109375 -0.078125,-0.109375 -0.34375,-0.109375 -0.234375,0 -0.375,0 -0.625,-0.015625 -0.296875,-0.03125 -0.375,-0.0625 -0.375,-0.21875 0,-0.015625 0,-0.0625 0.046875,-0.203125 z m 0,0"
               id="id-be750023-cddc-4cdf-8308-652b896ef048" />
          </g>
        </g>
      </defs>
      <g
         fill="#000000"
         fill-opacity="1"
         id="id-ffd53fe9-0f54-492d-b723-3a9cf9c05ad6"
         transform="translate(-302.255,-139.97)">
        <g
           transform="translate(302.021,146.72)"
           id="g2578">
          <path
             d="m 4.25,-6.046875 c 0.078125,-0.28125 0.109375,-0.34375 0.234375,-0.375 0.09375,-0.015625 0.421875,-0.015625 0.625,-0.015625 1.015625,0 1.453125,0.03125 1.453125,0.8125 0,0.15625 -0.03125,0.546875 -0.078125,0.796875 0,0.046875 -0.03125,0.15625 -0.03125,0.1875 0,0.0625 0.03125,0.140625 0.125,0.140625 0.109375,0 0.125,-0.078125 0.15625,-0.234375 L 7,-6.46875 C 7.015625,-6.515625 7.015625,-6.609375 7.015625,-6.640625 7.015625,-6.75 6.921875,-6.75 6.75,-6.75 H 1.21875 c -0.234375,0 -0.25,0.015625 -0.328125,0.203125 l -0.59375,1.75 c 0,0.015625 -0.0625,0.15625 -0.0625,0.1875 0,0.046875 0.0625,0.109375 0.125,0.109375 0.09375,0 0.109375,-0.0625 0.171875,-0.21875 C 1.0625,-6.265625 1.328125,-6.4375 2.796875,-6.4375 H 3.1875 c 0.28125,0 0.28125,0.03125 0.28125,0.125 0,0.046875 -0.03125,0.171875 -0.046875,0.203125 L 2.09375,-0.78125 C 2,-0.421875 1.96875,-0.3125 0.90625,-0.3125 c -0.359375,0 -0.421875,0 -0.421875,0.1875 C 0.484375,0 0.59375,0 0.65625,0 c 0.265625,0 0.546875,-0.015625 0.8125,-0.015625 0.28125,0 0.578125,-0.015625 0.859375,-0.015625 0.28125,0 0.546875,0.015625 0.828125,0.015625 C 3.4375,-0.015625 3.734375,0 4.015625,0 c 0.09375,0 0.21875,0 0.21875,-0.203125 0,-0.109375 -0.078125,-0.109375 -0.34375,-0.109375 -0.234375,0 -0.375,0 -0.625,-0.015625 -0.296875,-0.03125 -0.375,-0.0625 -0.375,-0.21875 0,-0.015625 0,-0.0625 0.046875,-0.203125 z m 0,0"
             id="id-4ccb7a2a-b487-4f56-9b8c-eb1e878ef0b7" />
        </g>
      </g>
    </g>
    <path
       style="fill:#008080;fill-opacity:0;fill-rule:evenodd;stroke:#000000;stroke-width:0.3;stroke-dasharray:none;paint-order:stroke fill markers"
       d="m 54.879943,217.37026 c -7.084223,32.33056 32.6518,32.21936 32.6518,32.21936"
       id="path6"
       sodipodi:nodetypes="cc" />
    <g
       transform="matrix(0.423334,0,0,0.423334,62.701747,237.86445)"
       ns1:version="1.9.0"
       ns1:texconverter="pdflatex"
       ns1:pdfconverter="inkscape"
       ns1:text="$$B$$"
       ns1:preamble="/home/buyolitsez/.config/inkscape/extensions/textext/default_packages.tex"
       ns1:scale="1.1999999915541815"
       ns1:alignment="middle center"
       ns1:stroke-to-path="0"
       ns1:inkscapeversion="0.92.4"
       id="g9437"
       ns1:jacobian_sqrt="0.423334">
      <defs
         id="id-cdaf5003-1c57-4540-89a0-a35dc9292080">
        <g
           id="id-8b0b882c-72db-4854-92f7-9c56ae7a5927">
          <g
             id="id-6ded4702-c223-4afb-bed8-d62ab907e245">
            <path
               d="M 1.59375,-0.78125 C 1.5,-0.390625 1.46875,-0.3125 0.6875,-0.3125 c -0.171875,0 -0.265625,0 -0.265625,0.203125 C 0.421875,0 0.515625,0 0.6875,0 H 4.25 C 5.828125,0 7,-1.171875 7,-2.15625 7,-2.875 6.421875,-3.453125 5.453125,-3.5625 6.484375,-3.75 7.53125,-4.484375 7.53125,-5.4375 c 0,-0.734375 -0.65625,-1.375 -1.84375,-1.375 H 2.328125 c -0.1875,0 -0.28125,0 -0.28125,0.203125 0,0.109375 0.09375,0.109375 0.28125,0.109375 0.015625,0 0.203125,0 0.375,0.015625 0.171875,0.03125 0.265625,0.03125 0.265625,0.171875 0,0.03125 -0.015625,0.0625 -0.03125,0.1875 z m 1.5,-2.875 0.625,-2.46875 C 3.8125,-6.46875 3.828125,-6.5 4.25,-6.5 h 1.296875 c 0.875,0 1.078125,0.59375 1.078125,1.03125 0,0.875 -0.859375,1.8125 -2.0625,1.8125 z m -0.4375,3.34375 c -0.140625,0 -0.15625,0 -0.21875,0 -0.109375,-0.015625 -0.140625,-0.03125 -0.140625,-0.109375 0,-0.03125 0,-0.046875 0.0625,-0.21875 l 0.6875,-2.78125 h 1.875 c 0.953125,0 1.15625,0.734375 1.15625,1.15625 C 6.078125,-1.28125 5.1875,-0.3125 4,-0.3125 Z m 0,0"
               id="id-ada1f28b-841b-46c6-b3c6-7cb4b39b059e" />
          </g>
        </g>
      </defs>
      <g
         fill="#000000"
         fill-opacity="1"
         id="id-f0439156-d9de-412c-8c4a-32fd9779adc3"
         transform="translate(-302.018,-139.907)">
        <g
           transform="translate(301.596,146.72)"
           id="g1950">
          <path
             d="M 1.59375,-0.78125 C 1.5,-0.390625 1.46875,-0.3125 0.6875,-0.3125 c -0.171875,0 -0.265625,0 -0.265625,0.203125 C 0.421875,0 0.515625,0 0.6875,0 H 4.25 C 5.828125,0 7,-1.171875 7,-2.15625 7,-2.875 6.421875,-3.453125 5.453125,-3.5625 6.484375,-3.75 7.53125,-4.484375 7.53125,-5.4375 c 0,-0.734375 -0.65625,-1.375 -1.84375,-1.375 H 2.328125 c -0.1875,0 -0.28125,0 -0.28125,0.203125 0,0.109375 0.09375,0.109375 0.28125,0.109375 0.015625,0 0.203125,0 0.375,0.015625 0.171875,0.03125 0.265625,0.03125 0.265625,0.171875 0,0.03125 -0.015625,0.0625 -0.03125,0.1875 z m 1.5,-2.875 0.625,-2.46875 C 3.8125,-6.46875 3.828125,-6.5 4.25,-6.5 h 1.296875 c 0.875,0 1.078125,0.59375 1.078125,1.03125 0,0.875 -0.859375,1.8125 -2.0625,1.8125 z m -0.4375,3.34375 c -0.140625,0 -0.15625,0 -0.21875,0 -0.109375,-0.015625 -0.140625,-0.03125 -0.140625,-0.109375 0,-0.03125 0,-0.046875 0.0625,-0.21875 l 0.6875,-2.78125 h 1.875 c 0.953125,0 1.15625,0.734375 1.15625,1.15625 C 6.078125,-1.28125 5.1875,-0.3125 4,-0.3125 Z m 0,0"
             id="id-5cfa14f5-9997-4703-ac9f-16b79ae474fa" />
        </g>
      </g>
    </g>
    <path
       style="fill:#008080;fill-opacity:0;fill-rule:evenodd;stroke:#008080;stroke-width:0.3;stroke-dasharray:none;paint-order:stroke fill markers"
       d="M 135.43278,251.95005 C 37.411485,277.38819 -11.473844,249.40194 15.316305,222.29821 42.106453,195.19447 125.83868,179.19275 130.94608,187.24186 c 5.1074,8.0491 8.17089,18.98696 8.17089,18.98696"
       id="path7" />
    <g
       transform="matrix(0.423334,0,0,0.423334,105.2953,260.37949)"
       ns1:version="1.9.0"
       ns1:texconverter="pdflatex"
       ns1:pdfconverter="inkscape"
       ns1:text="$$A_S$$"
       ns1:preamble="/home/buyolitsez/.config/inkscape/extensions/textext/default_packages.tex"
       ns1:scale="1.1999999915541815"
       ns1:alignment="middle center"
       ns1:stroke-to-path="0"
       ns1:inkscapeversion="0.92.4"
       id="g4867"
       ns1:jacobian_sqrt="0.423334"
       style="fill:#008080">
      <defs
         id="id-6b91eaee-6a2d-4680-bd21-af2dbcd4971e">
        <g
           id="id-7c82aaff-654c-4b5b-b5d2-76a2b22cafe0">
          <g
             id="id-5d37af12-0845-4a59-84c2-75c304381f94">
            <path
               d="M 1.78125,-1.140625 C 1.390625,-0.484375 1,-0.34375 0.5625,-0.3125 0.4375,-0.296875 0.34375,-0.296875 0.34375,-0.109375 0.34375,-0.046875 0.40625,0 0.484375,0 0.75,0 1.0625,-0.03125 1.328125,-0.03125 c 0.34375,0 0.6875,0.03125 1,0.03125 0.0625,0 0.1875,0 0.1875,-0.1875 0,-0.109375 -0.078125,-0.125 -0.15625,-0.125 -0.21875,-0.015625 -0.46875,-0.09375 -0.46875,-0.34375 0,-0.125 0.0625,-0.234375 0.140625,-0.375 l 0.765625,-1.265625 h 2.5 c 0.015625,0.203125 0.15625,1.5625 0.15625,1.65625 0,0.296875 -0.515625,0.328125 -0.71875,0.328125 C 4.59375,-0.3125 4.5,-0.3125 4.5,-0.109375 4.5,0 4.609375,0 4.640625,0 5.046875,0 5.46875,-0.03125 5.875,-0.03125 6.125,-0.03125 6.765625,0 7.015625,0 7.0625,0 7.1875,0 7.1875,-0.203125 7.1875,-0.3125 7.09375,-0.3125 6.953125,-0.3125 6.34375,-0.3125 6.34375,-0.375 6.3125,-0.671875 l -0.609375,-6.21875 c -0.015625,-0.203125 -0.015625,-0.25 -0.1875,-0.25 -0.15625,0 -0.203125,0.078125 -0.265625,0.171875 z M 2.984375,-2.609375 4.9375,-5.90625 5.265625,-2.609375 Z m 0,0"
               id="id-bbb8746c-7d67-4cf4-af0b-d2c6eb468b86" />
          </g>
          <g
             id="id-bf6b3dce-33ae-440b-b4fe-60affbf212db">
            <path
               d="m 4.953125,-4.8125 c 0,-0.03125 -0.03125,-0.09375 -0.09375,-0.09375 -0.046875,0 -0.046875,0.015625 -0.140625,0.109375 L 4.375,-4.40625 c -0.265625,-0.375 -0.703125,-0.5 -1.125,-0.5 -0.984375,0 -1.859375,0.796875 -1.859375,1.609375 0,0.09375 0.03125,0.375 0.234375,0.640625 0.234375,0.265625 0.5,0.328125 0.96875,0.453125 0.140625,0.03125 0.484375,0.109375 0.59375,0.140625 0.21875,0.046875 0.640625,0.203125 0.640625,0.71875 0,0.5625 -0.59375,1.234375 -1.375,1.234375 -0.625,0 -1.359375,-0.21875 -1.359375,-0.984375 0,-0.078125 0.015625,-0.234375 0.046875,-0.359375 0,-0.03125 0,-0.03125 0,-0.03125 0,-0.09375 -0.078125,-0.09375 -0.109375,-0.09375 -0.09375,0 -0.109375,0.015625 -0.125,0.140625 l -0.359375,1.390625 c -0.015625,0.03125 -0.03125,0.0625 -0.03125,0.109375 0,0.03125 0.03125,0.078125 0.109375,0.078125 0.03125,0 0.046875,-0.015625 0.140625,-0.09375 0.078125,-0.09375 0.25,-0.3125 0.328125,-0.390625 C 1.46875,0.0625 2,0.140625 2.421875,0.140625 c 1.0625,0 1.90625,-0.90625 1.90625,-1.734375 0,-0.296875 -0.125,-0.578125 -0.28125,-0.734375 -0.234375,-0.25 -0.34375,-0.28125 -1.25,-0.5 C 2.65625,-2.859375 2.421875,-2.90625 2.359375,-2.9375 2.1875,-3 1.890625,-3.171875 1.890625,-3.5625 c 0,-0.5625 0.625,-1.109375 1.34375,-1.109375 0.765625,0 1.125,0.421875 1.125,1.078125 0,0.09375 -0.03125,0.25 -0.03125,0.3125 0,0.109375 0.078125,0.109375 0.125,0.109375 0.09375,0 0.109375,-0.046875 0.125,-0.15625 z m 0,0"
               id="id-094e963b-acd9-4147-90a7-64b231ed2163" />
          </g>
        </g>
      </defs>
      <g
         fill="#000000"
         fill-opacity="1"
         id="id-441b56c4-f2b5-4596-94a8-e448e731a7d4"
         transform="translate(-299.346,-139.579)"
         style="fill:#008080">
        <g
           transform="translate(299.002,146.72)"
           id="g7970"
           style="fill:#008080">
          <path
             d="M 1.78125,-1.140625 C 1.390625,-0.484375 1,-0.34375 0.5625,-0.3125 0.4375,-0.296875 0.34375,-0.296875 0.34375,-0.109375 0.34375,-0.046875 0.40625,0 0.484375,0 0.75,0 1.0625,-0.03125 1.328125,-0.03125 c 0.34375,0 0.6875,0.03125 1,0.03125 0.0625,0 0.1875,0 0.1875,-0.1875 0,-0.109375 -0.078125,-0.125 -0.15625,-0.125 -0.21875,-0.015625 -0.46875,-0.09375 -0.46875,-0.34375 0,-0.125 0.0625,-0.234375 0.140625,-0.375 l 0.765625,-1.265625 h 2.5 c 0.015625,0.203125 0.15625,1.5625 0.15625,1.65625 0,0.296875 -0.515625,0.328125 -0.71875,0.328125 C 4.59375,-0.3125 4.5,-0.3125 4.5,-0.109375 4.5,0 4.609375,0 4.640625,0 5.046875,0 5.46875,-0.03125 5.875,-0.03125 6.125,-0.03125 6.765625,0 7.015625,0 7.0625,0 7.1875,0 7.1875,-0.203125 7.1875,-0.3125 7.09375,-0.3125 6.953125,-0.3125 6.34375,-0.3125 6.34375,-0.375 6.3125,-0.671875 l -0.609375,-6.21875 c -0.015625,-0.203125 -0.015625,-0.25 -0.1875,-0.25 -0.15625,0 -0.203125,0.078125 -0.265625,0.171875 z M 2.984375,-2.609375 4.9375,-5.90625 5.265625,-2.609375 Z m 0,0"
             id="id-d9e00f22-e371-4f23-8546-4e9a5b96c3b3"
             style="fill:#008080" />
        </g>
      </g>
      <g
         fill="#000000"
         fill-opacity="1"
         id="id-1e158c37-4c87-4254-a05d-42c467d6d12f"
         transform="translate(-299.346,-139.579)"
         style="fill:#008080">
        <g
           transform="translate(306.474,148.214)"
           id="g5775"
           style="fill:#008080">
          <path
             d="m 4.953125,-4.8125 c 0,-0.03125 -0.03125,-0.09375 -0.09375,-0.09375 -0.046875,0 -0.046875,0.015625 -0.140625,0.109375 L 4.375,-4.40625 c -0.265625,-0.375 -0.703125,-0.5 -1.125,-0.5 -0.984375,0 -1.859375,0.796875 -1.859375,1.609375 0,0.09375 0.03125,0.375 0.234375,0.640625 0.234375,0.265625 0.5,0.328125 0.96875,0.453125 0.140625,0.03125 0.484375,0.109375 0.59375,0.140625 0.21875,0.046875 0.640625,0.203125 0.640625,0.71875 0,0.5625 -0.59375,1.234375 -1.375,1.234375 -0.625,0 -1.359375,-0.21875 -1.359375,-0.984375 0,-0.078125 0.015625,-0.234375 0.046875,-0.359375 0,-0.03125 0,-0.03125 0,-0.03125 0,-0.09375 -0.078125,-0.09375 -0.109375,-0.09375 -0.09375,0 -0.109375,0.015625 -0.125,0.140625 l -0.359375,1.390625 c -0.015625,0.03125 -0.03125,0.0625 -0.03125,0.109375 0,0.03125 0.03125,0.078125 0.109375,0.078125 0.03125,0 0.046875,-0.015625 0.140625,-0.09375 0.078125,-0.09375 0.25,-0.3125 0.328125,-0.390625 C 1.46875,0.0625 2,0.140625 2.421875,0.140625 c 1.0625,0 1.90625,-0.90625 1.90625,-1.734375 0,-0.296875 -0.125,-0.578125 -0.28125,-0.734375 -0.234375,-0.25 -0.34375,-0.28125 -1.25,-0.5 C 2.65625,-2.859375 2.421875,-2.90625 2.359375,-2.9375 2.1875,-3 1.890625,-3.171875 1.890625,-3.5625 c 0,-0.5625 0.625,-1.109375 1.34375,-1.109375 0.765625,0 1.125,0.421875 1.125,1.078125 0,0.09375 -0.03125,0.25 -0.03125,0.3125 0,0.109375 0.078125,0.109375 0.125,0.109375 0.09375,0 0.109375,-0.046875 0.125,-0.15625 z m 0,0"
             id="id-bdcebe76-b02a-4db0-9e3a-8c8d5d433c69"
             style="fill:#008080" />
        </g>
      </g>
    </g>
    <g
       transform="matrix(0.423334,0,0,0.423334,137.58021,253.63238)"
       ns1:version="1.9.0"
       ns1:texconverter="pdflatex"
       ns1:pdfconverter="inkscape"
       ns1:text="$$S$$"
       ns1:preamble="/home/buyolitsez/.config/inkscape/extensions/textext/default_packages.tex"
       ns1:scale="1.1999999915541815"
       ns1:alignment="middle center"
       ns1:stroke-to-path="0"
       ns1:inkscapeversion="0.92.4"
       id="g5061"
       ns1:jacobian_sqrt="0.423334"
       style="fill:#008080">
      <defs
         id="id-08ef2d5e-e807-41e8-b27b-045e80518127">
        <g
           id="id-9d771bb7-be7f-4715-9cb2-eb0d3945bacf">
          <g
             id="id-c01b46f6-5918-4769-a700-261ffe1b2634">
            <path
               d="m 6.4375,-6.921875 c 0,-0.03125 -0.03125,-0.109375 -0.125,-0.109375 -0.046875,0 -0.046875,0.015625 -0.171875,0.15625 L 5.65625,-6.3125 c -0.25,-0.46875 -0.765625,-0.71875 -1.421875,-0.71875 -1.265625,0 -2.453125,1.15625 -2.453125,2.359375 0,0.796875 0.515625,1.265625 1.03125,1.40625 l 1.0625,0.28125 c 0.375,0.09375 0.921875,0.25 0.921875,1.0625 0,0.890625 -0.8125,1.828125 -1.796875,1.828125 -0.640625,0 -1.75,-0.21875 -1.75,-1.453125 0,-0.234375 0.0625,-0.484375 0.0625,-0.53125 0.015625,-0.046875 0.015625,-0.0625 0.015625,-0.078125 0,-0.09375 -0.0625,-0.109375 -0.109375,-0.109375 -0.046875,0 -0.078125,0.015625 -0.109375,0.046875 -0.03125,0.03125 -0.59375,2.3125 -0.59375,2.34375 0,0.046875 0.046875,0.09375 0.109375,0.09375 0.046875,0 0.0625,-0.015625 0.1875,-0.15625 L 1.296875,-0.5 c 0.421875,0.578125 1.109375,0.71875 1.6875,0.71875 1.359375,0 2.53125,-1.328125 2.53125,-2.5625 0,-0.6875 -0.34375,-1.03125 -0.484375,-1.171875 C 4.796875,-3.734375 4.640625,-3.78125 3.765625,-4 3.53125,-4.0625 3.1875,-4.171875 3.09375,-4.1875 2.828125,-4.28125 2.484375,-4.5625 2.484375,-5.09375 c 0,-0.8125 0.796875,-1.65625 1.75,-1.65625 0.8125,0 1.421875,0.4375 1.421875,1.546875 0,0.3125 -0.03125,0.5 -0.03125,0.5625 0,0 0,0.09375 0.109375,0.09375 0.109375,0 0.125,-0.03125 0.15625,-0.203125 z m 0,0"
               id="id-07591069-f410-46a7-bc0a-2f51ab04bbc9" />
          </g>
        </g>
      </defs>
      <g
         fill="#000000"
         fill-opacity="1"
         id="id-f87e781c-5bc8-4029-8f79-ef76227b4579"
         transform="translate(-302.798,-139.689)"
         style="fill:#008080">
        <g
           transform="translate(302.282,146.72)"
           id="g7822"
           style="fill:#008080">
          <path
             d="m 6.4375,-6.921875 c 0,-0.03125 -0.03125,-0.109375 -0.125,-0.109375 -0.046875,0 -0.046875,0.015625 -0.171875,0.15625 L 5.65625,-6.3125 c -0.25,-0.46875 -0.765625,-0.71875 -1.421875,-0.71875 -1.265625,0 -2.453125,1.15625 -2.453125,2.359375 0,0.796875 0.515625,1.265625 1.03125,1.40625 l 1.0625,0.28125 c 0.375,0.09375 0.921875,0.25 0.921875,1.0625 0,0.890625 -0.8125,1.828125 -1.796875,1.828125 -0.640625,0 -1.75,-0.21875 -1.75,-1.453125 0,-0.234375 0.0625,-0.484375 0.0625,-0.53125 0.015625,-0.046875 0.015625,-0.0625 0.015625,-0.078125 0,-0.09375 -0.0625,-0.109375 -0.109375,-0.109375 -0.046875,0 -0.078125,0.015625 -0.109375,0.046875 -0.03125,0.03125 -0.59375,2.3125 -0.59375,2.34375 0,0.046875 0.046875,0.09375 0.109375,0.09375 0.046875,0 0.0625,-0.015625 0.1875,-0.15625 L 1.296875,-0.5 c 0.421875,0.578125 1.109375,0.71875 1.6875,0.71875 1.359375,0 2.53125,-1.328125 2.53125,-2.5625 0,-0.6875 -0.34375,-1.03125 -0.484375,-1.171875 C 4.796875,-3.734375 4.640625,-3.78125 3.765625,-4 3.53125,-4.0625 3.1875,-4.171875 3.09375,-4.1875 2.828125,-4.28125 2.484375,-4.5625 2.484375,-5.09375 c 0,-0.8125 0.796875,-1.65625 1.75,-1.65625 0.8125,0 1.421875,0.4375 1.421875,1.546875 0,0.3125 -0.03125,0.5 -0.03125,0.5625 0,0 0,0.09375 0.109375,0.09375 0.109375,0 0.125,-0.03125 0.15625,-0.203125 z m 0,0"
             id="id-e4df15e1-d8c5-4927-ab23-9f7a2c9f2136"
             style="fill:#008080" />
        </g>
      </g>
    </g>
    <path
       style="fill:#008080;fill-opacity:0;fill-rule:evenodd;stroke:#000000;stroke-width:0.3;stroke-dasharray:0.30000001,0.30000001;paint-order:stroke fill markers;stroke-dashoffset:0"
       d="M 62.59899,235.77653 80.496351,214.77861"
       id="path8" />
  </g>
</svg>
